<svg width="678" height="297" viewBox="0 0 678 297" fill="none" xmlns="http://www.w3.org/2000/svg">
<rect x="39.4562" y="35.0924" width="450.051" height="119.415" rx="59.7077" fill="black" stroke="black" stroke-width="2.98462"/>
<rect x="1.49231" y="1.49231" width="475.361" height="119.415" rx="59.7077" fill="#B1B1B1" stroke="black" stroke-width="2.98462"/>
<path d="M86.425 46.0903V54.2932L84.8288 54.7366L82.9222 51.9432L80.8825 52.963C80.2913 52.6674 79.8923 52.5196 79.6854 52.5196L76.8919 52.0762L74.0985 51.1894L72.591 51.9432L72.1476 51.8102L69.3098 53.2291C68.9846 53.4951 68.8221 54.1159 68.8221 55.0913V56.0225L67.4475 59.2593V63.9593L69.4872 68.216L70.374 66.6197V63.8263L71.3051 63.3386L72.1032 66.3537C72.1032 66.5015 72.1919 66.738 72.3693 67.0631L72.2362 68.1273L72.6796 69.1915C72.7092 69.2506 73.0787 69.2358 73.7881 69.1471L75.2957 69.9896L76.7146 70.1226C77.6309 69.4132 78.1778 69.0732 78.3552 69.1028L79.5523 67.3292L80.7495 68.216H81.2816L83.8533 64.4914C84.5923 65.3487 84.9618 65.9103 84.9618 66.1763V74.7783L84.0307 77.0396H83.4986L82.6561 76.0198L81.6363 77.217L79.242 77.7934C79.0942 77.7934 78.8872 77.823 78.6212 77.8821C78.3552 77.9412 78.1482 77.9708 78.0004 77.9708L75.4731 77.5274L73.1674 77.9708L72.0145 77.5274L71.2164 77.6604C70.3001 77.483 68.29 76.7736 65.1862 75.5321C63.856 74.261 61.8459 72.3396 59.1559 69.7679C58.7125 69.354 58.4908 68.8515 58.4908 68.2603V65.0235L57.471 60.0131L58.6239 49.9036L58.9786 49.5932H59.6437L60.2644 51.3668L60.6192 51.4998C62.1267 49.5784 63.0135 48.396 63.2796 47.9526C64.1959 46.4746 64.6689 45.1001 64.6984 43.829H65.5852L66.4277 46.179L68.29 44.8045H70.0636L71.3938 43.962L72.724 43.696L74.4976 40.1488H75.0297L75.9165 43.3856L76.3155 43.696H77.7787L82.6561 46.312L82.7892 46.179L83.4099 46.6224H83.809L85.2722 43.696L85.893 43.0752L86.2477 43.4299L86.425 46.0903ZM119.996 75.5764C119.789 75.6651 119.479 75.8129 119.065 76.0198L115.296 75.9311L113.744 75.4434L111.838 75.9311H110.729L110.108 74.5123V72.6056L109.887 72.3396L109.709 72.4726L108.512 68.1716L108.113 67.6839H105.408L104.876 66.7084L103.724 68.482C103.191 68.2455 102.866 67.9943 102.748 67.7282L101.24 67.4622L98.8018 68.0386L98.0923 67.9056L97.1169 71.4085V73.6255L96.0527 75.9311H92.0621L89.3574 75.4434L89.2243 75.5764L88.4706 75.3104L87.7168 75.5764L87.0517 75.266L87.8055 71.3641L89.446 66.7971L90.0668 59.9244H90.4215L91.7074 62.7178L94.0131 57.1753V56.2885L95.698 51.8545V45.0705L96.5404 43.0752H96.9395L98.5357 46.312L100.088 44.5828L102.216 43.5186L103.103 43.829L103.324 43.5629V42.4544C103.324 41.5972 103.694 40.873 104.433 40.2818L105.941 44.4054L106.517 44.2724L108.025 44.8931L108.645 47.1101L109.355 48.13L110.33 52.3866L111.66 49.7262L112.503 51.8545L112.946 56.1555L114.099 60.8555C114.129 60.9442 114.188 60.9886 114.276 60.9886L115.03 59.348L115.695 59.215L116.316 61.2989L116.759 64.1367V65.4226C116.937 65.5999 117.055 65.6886 117.114 65.6886C117.232 65.4817 117.292 65.2895 117.292 65.1122C117.292 65.0235 117.262 64.9348 117.203 64.8461L117.868 64.3584C118.016 64.4766 118.149 64.5358 118.267 64.5358V67.2405L119.287 69.9009L119.996 75.5764ZM105.541 61.6537L104.344 58.5055L104.522 57.7517L102.216 54.2932L101.418 56.3772C101.507 56.3772 101.758 56.4215 102.172 56.5102C102.172 56.5398 102.186 56.6285 102.216 56.7763C102.275 56.9241 102.305 57.0275 102.305 57.0866L100.221 62.0527H104.61C104.965 61.7867 105.275 61.6537 105.541 61.6537ZM174.315 75.0887L173.96 75.4434L172.719 75.133L170.856 75.5764L169.393 75L166.688 76.0198C166.481 75.8129 166.23 75.7094 165.935 75.7094C165.728 75.7094 165.373 75.7833 164.87 75.9311C164.368 76.0789 164.043 76.1676 163.895 76.1972L162.964 75.5321C163.082 74.0245 162.195 72.6056 160.303 71.2754L159.727 68.482L159.328 68.7037L158.574 68.9254L155.869 64.5801H151.701V66.9301L151.968 67.1518C152.263 67.0631 152.559 67.0188 152.854 67.0188C153.091 67.2553 153.209 67.4179 153.209 67.5065V73.3151C153.209 74.0541 152.293 74.6157 150.46 75L148.509 74.2462L144.829 75L143.809 74.2019V67.8613L141.37 58.4612H142.08L144.075 60.6782V50.8347L143.277 48.1743L142.434 40.7695C142.523 40.5035 142.7 40.3705 142.967 40.3705C143.055 40.3705 143.159 40.3852 143.277 40.4148L145.139 43.829L145.982 42.6318H147.755L148.066 42.1884L149.13 42.4988L150.105 42.1884L150.859 42.4988L151.79 42.3214L154.495 43.0752L154.761 42.9865L155.293 43.0752L155.869 40.1488C156.076 40.0305 156.239 39.8679 156.357 39.661C156.475 39.7793 156.638 39.8384 156.845 39.8384L159.195 43.6516L160.525 43.0752L161.412 43.6516C162.151 43.3856 162.594 42.75 162.742 41.745C162.92 40.533 163.156 39.7497 163.452 39.395C163.718 39.6315 163.851 39.794 163.851 39.8827V40.7695L165.092 44.4054L166.511 40.7252C166.748 40.7252 166.925 40.6808 167.043 40.5922V42.2327L168.285 45.6469V46.4007L170.324 52.2979V56.1998L167.664 59.9244L166.334 60.3678L166.112 60.2348L164.427 61.0772L166.112 64.3584L167.265 61.565H167.664L169.127 67.6396L169.97 68.5707L171.034 68.349L171.521 68.6594L172.364 71.4528H173.118L173.561 74.1575L174.315 74.6009V75.0887ZM160.303 52.2979L158.619 50.347C158.352 50.347 158.146 50.3913 157.998 50.48L156.224 49.5932C156.017 49.7705 155.796 49.8592 155.559 49.8592H154.451L153.431 50.1696C153.283 50.1105 153.135 50.0809 152.987 50.0809C152.84 50.0809 152.662 50.1253 152.455 50.2139L151.879 50.8347L152.455 56.1998L153.298 56.6876L154.628 53.2734H155.16L155.559 53.6725L156.313 56.2442H157.732L157.865 56.0668L158.574 56.3772L159.372 55.8895L160.303 52.2979ZM198.417 74.2019L197.575 77.084C197.368 76.9362 197.058 76.8771 196.644 76.9066C196.467 76.4041 196.171 76.0198 195.757 75.7538L193.673 76.6406C193.259 76.7588 192.905 76.8179 192.609 76.8179C192.343 76.8179 192.121 76.7588 191.944 76.6406L190.17 76.9066L188.397 76.7736C188.19 76.7736 187.998 76.8771 187.82 77.084L187.466 76.7736L185.603 76.6406C185.249 76.611 184.894 76.4041 184.539 76.0198L182.544 75.8868L179.085 76.6406L177.533 76.0198C177.208 76.0198 177.046 76.1233 177.046 76.3302L176.824 75.9311H175.361L174.563 74.6453L175.361 68.0386V61.9197L174.297 56.9093V54.6479L174.651 54.1602L175.139 54.6036H175.582L175.671 54.7366V41.0356L176.292 40.5922L177.799 44.2724H179.617L181.391 39.9714H182.233L183.697 44.9818C183.933 44.7749 184.184 44.701 184.45 44.7601C185.101 44.8192 185.485 44.8488 185.603 44.8488L187.51 45.2035L190.303 45.1592C190.865 45.0409 191.279 44.4793 191.545 43.4743C191.693 42.9717 191.855 42.2032 192.033 41.1686L192.698 40.7252L195.934 44.2724L197.132 43.0752C197.22 43.1934 197.427 43.2526 197.752 43.2526L198.151 43.3856C198.329 43.4743 198.417 43.5925 198.417 43.7403V49.6819L197.442 50.9234L194.117 51.1007L192.964 50.1696L190.968 50.9234L190.747 50.746L188.973 51.1007H187.599L186.579 51.3668C186.608 51.3077 186.623 51.2633 186.623 51.2338C186.623 51.1451 186.549 51.1007 186.401 51.1007H184.894L184.317 54.2045L184.761 54.5593L186.002 54.9583L187.332 53.2734L188.131 53.0517L188.618 55.2244L190.525 56.2442C190.761 56.0077 191.087 55.8895 191.5 55.8895C191.944 55.8895 192.299 56.0077 192.565 56.2442C193.54 56.1851 194.176 55.7417 194.471 54.914C194.885 53.8203 195.21 53.1995 195.447 53.0517L195.979 52.83L196.422 55.1357V60.4565L195.801 61.698L195.048 61.565L194.471 61.831L191.367 61.3876L189.195 61.831H184.317V66.7971L184.761 69.1028L185.16 69.3688L186.756 69.0584L188.219 68.7924L189.239 66.5754H189.904L191.5 69.9009C191.619 69.8418 191.855 69.8122 192.21 69.8122C192.594 69.8122 193.097 69.8418 193.717 69.9009L196.954 68.7481L198.196 68.482L198.417 70.3443V74.2019ZM232.709 56.8206L231.956 61.1659L232.089 63.1169C231.911 63.3238 231.822 63.6637 231.822 64.1367L231.202 67.8169L231.29 67.9056L231.556 67.5952L232.222 67.7726L231.379 75.9755L230.714 77.483C230.537 77.4535 230.226 77.217 229.783 76.7736L226.236 76.951L224.462 76.1972C224.285 76.1972 224.152 76.2415 224.063 76.3302L222.511 75.5764L222.068 72.8717L221.225 70.8764L220.693 71.5858H219.762L218.964 70.0783L212.889 61.964L209.076 55.6234C208.928 55.6234 208.766 55.7121 208.588 55.8895V56.9093L209.032 58.8159L209.786 62.9395C209.786 63.0873 209.682 63.2499 209.475 63.4273V66.132L210.584 65.2452L211.559 65.5556L211.869 66.5754L210.362 71.5415L210.983 74.4679L210.185 77.35C210.155 77.35 210.052 77.3944 209.874 77.483C209.726 77.5422 209.652 77.5422 209.652 77.483C209.357 77.2466 208.928 76.9657 208.367 76.6406L206.77 76.7736C206.504 76.8032 206.297 76.6554 206.15 76.3302C206.12 76.4484 205.839 76.6554 205.307 76.951L202.647 77.084L202.336 77.35L202.026 77.217C201.819 77.1579 201.657 77.1579 201.538 77.217L201.139 75.0887C201.11 74.9409 201.095 74.7635 201.095 74.5566C201.095 74.3792 201.11 74.1575 201.139 73.8915V67.1962L199.144 59.5253C199.055 59.4958 199.336 59.481 199.986 59.481L201.583 61.831L201.804 61.6093L201.139 59.1263V57.0423L201.006 54.9583V48.396L201.405 48.529L200.962 48.1743V47.2875L202.115 43.5629L202.78 43.0752L204.553 44.9818L206.283 44.5828C206.815 44.1098 207.169 43.5482 207.347 42.8978C207.435 42.5727 207.509 41.8632 207.569 40.7695L208.411 40.2818L209.032 40.9025L210.362 45.7356C211.249 45.6765 212.121 46.5337 212.978 48.3073C214.515 51.4702 215.446 53.2734 215.771 53.7168L216.126 51.5441C216.363 51.3372 216.658 51.2338 217.013 51.2338L219.053 58.0178C219.792 58.1656 220.442 58.9637 221.004 60.4121C221.595 61.9493 222.097 62.8213 222.511 63.0282V52.9187L223.088 50.613L222.511 46.1347V40.0157H223.354L224.551 44.8931C224.817 45.1592 224.935 45.2922 224.905 45.2922L226.457 43.7403C227.196 43.0013 227.61 42.2032 227.699 41.3459L228.364 41.1686C228.364 41.5824 228.379 41.8041 228.408 41.8337C228.379 41.8632 228.364 41.9371 228.364 42.0554C228.364 42.4397 228.541 42.8831 228.896 43.3856C229.251 43.8881 229.605 44.1837 229.96 44.2724L230.537 43.962L231.335 44.3167V47.2432L230.625 50.3913L230.492 53.8055L230.847 56.2442L231.246 54.4706L231.911 54.3376L232.709 56.8206ZM267.843 64.1367L267.266 68.2603C267.266 68.3786 267.326 68.482 267.444 68.5707C267.621 68.7481 267.754 68.8959 267.843 69.0141V69.9009C266.69 72.2657 264.872 74.5714 262.389 76.8179C260.142 78.8576 258.295 80.0695 256.847 80.4538L255.516 80.1434L254.363 81.3406H252.767L251.304 81.784L249.442 81.3406H248.245L247.225 80.8972L246.338 81.0746L245.008 80.1434L243.5 79.8331L236.184 72.2953V70.9651C235.12 69.3393 234.588 67.8465 234.588 66.4867C234.588 66.3389 234.603 66.1024 234.632 65.7773V65.0235C234.632 64.6983 234.603 64.2549 234.543 63.6933C234.484 63.0134 234.455 62.57 234.455 62.3631L234.011 52.7413L234.366 52.2536L235.031 52.3866L236.317 55.047L238.889 50.0809C238.889 49.9331 238.8 49.8592 238.623 49.8592V49.1941L238.933 48.8394H239.421L240.574 49.8592L241.549 46.2233C242.022 45.9869 242.318 45.8686 242.436 45.8686L243.855 46.6224C243.914 46.652 243.958 46.6667 243.988 46.6667C244.047 46.6372 244.077 46.5781 244.077 46.4894V39.7054C244.165 39.6462 244.239 39.6167 244.298 39.6167C244.357 39.6167 244.402 39.6315 244.431 39.661C244.52 39.5723 244.786 39.6315 245.229 39.8384L247.136 44.6271V45.6913H249.619L250.772 46.179L251.792 45.913L252.634 43.4299V42.8092L253.477 42.6318C254.245 43.6073 254.63 44.4497 254.63 45.1592C254.63 45.307 254.6 45.4252 254.541 45.5139L255.96 47.1988C256.196 47.051 256.418 47.0067 256.625 47.0658C256.832 47.1249 257.009 47.1693 257.157 47.1988H257.911L260.261 47.6866L261.281 48.8394L261.502 47.8639V46.2677L261.68 45.3365L262.345 45.1592L265.759 54.3376C265.848 54.4558 265.981 54.5888 266.158 54.7366C266.335 54.5593 266.454 54.4706 266.513 54.4706L267.843 57.4857V64.1367ZM258.177 67.9943V59.0376L257.689 59.1706L257.068 58.7716L255.428 55.0913L250.905 51.6328L249.841 54.0272H249.309L247.801 53.1404L246.205 55.3574L246.028 55.18L244.653 57.9291L244.21 60.8999L244.653 64.4471V65.6443L245.008 66.7084L245.939 65.8216H246.294L247.491 70.832C247.579 70.832 247.698 70.8912 247.845 71.0094C247.934 70.9207 248.097 70.5069 248.333 69.7679L248.732 65.6886C248.821 65.7773 248.998 65.8216 249.264 65.8216L250.55 69.4575L251.038 72.783L252.546 72.0292L253.122 72.2509H253.876L255.117 72.4726L258.177 67.9943ZM298.92 60.5895L297.589 67.2405L296.791 72.65L296.614 72.4726L296.038 73.2264L295.86 73.0934L290.318 77.9264L286.992 79.3453C286.874 79.1088 286.667 78.9906 286.371 78.9906C286.165 78.9906 285.869 79.0497 285.485 79.168C285.1 79.2862 284.82 79.3453 284.642 79.3453L283.002 78.8576H281.361L276.572 76.9066C276.513 76.9066 276.395 76.9657 276.218 77.084L272.892 74.0689C272.892 73.9802 272.936 73.8767 273.025 73.7585C272.286 73.049 271.636 72.1918 271.074 71.1868C270.424 70.0339 270.099 69.0141 270.099 68.1273V66.3537L268.502 59.8801V56.8206L269.7 58.1508L269.921 57.8848L269.788 51.0121L269.345 47.5535L269.7 46.9328L270.586 47.3762L271.917 44.6271V41.5233L272.626 40.2818H273.158L274.488 45.0262H275.331C275.449 45.0262 275.523 44.9966 275.552 44.9375C275.582 44.8784 275.641 44.8488 275.73 44.8488L276.794 43.962H277.282L278.213 47.1545L277.592 49.6819V54.4706L278.834 51.6772H279.676V53.4951L277.902 65.1565L278.922 68.9698L280.474 69.6792L281.494 67.1962L282.336 67.3292L283.356 69.8566C284.095 69.8566 284.48 69.8418 284.509 69.8122L284.82 70.1226C285.352 70.0339 286.209 69.7679 287.391 69.3245C287.953 68.9993 288.337 68.6446 288.544 68.2603L288.101 63.6933V55.8895C288.042 55.8599 288.012 55.8303 288.012 55.8008C288.012 55.5939 288.13 55.4904 288.367 55.4904L289.83 57.5744C289.86 57.5153 289.978 57.3822 290.185 57.1753L289.874 54.2489V43.0309C289.845 42.7944 290.185 42.5727 290.894 42.3658L292.357 46.046L292.535 45.7799L293.155 40.1488C293.392 39.9123 293.569 39.8384 293.688 39.9271C293.806 40.0749 293.954 40.1488 294.131 40.1488L295.638 46.2233L296.038 46.6224H296.437L297.146 45.7356L297.811 45.6026C298.018 45.8095 298.151 45.913 298.21 45.913V49.2385L297.589 53.9385C297.767 54.1159 297.974 54.2045 298.21 54.2045V57.264C298.24 57.2049 298.314 57.1605 298.432 57.131L298.92 60.5895ZM333.167 56.8206L332.413 61.1659L332.546 63.1169C332.369 63.3238 332.28 63.6637 332.28 64.1367L331.66 67.8169L331.748 67.9056L332.014 67.5952L332.679 67.7726L331.837 75.9755L331.172 77.483C330.994 77.4535 330.684 77.217 330.241 76.7736L326.693 76.951L324.92 76.1972C324.743 76.1972 324.609 76.2415 324.521 76.3302L322.969 75.5764L322.526 72.8717L321.683 70.8764L321.151 71.5858H320.22L319.422 70.0783L313.347 61.964L309.534 55.6234C309.386 55.6234 309.224 55.7121 309.046 55.8895V56.9093L309.49 58.8159L310.243 62.9395C310.243 63.0873 310.14 63.2499 309.933 63.4273V66.132L311.041 65.2452L312.017 65.5556L312.327 66.5754L310.82 71.5415L311.441 74.4679L310.642 77.35C310.613 77.35 310.509 77.3944 310.332 77.483C310.184 77.5422 310.11 77.5422 310.11 77.483C309.815 77.2466 309.386 76.9657 308.824 76.6406L307.228 76.7736C306.962 76.8032 306.755 76.6554 306.607 76.3302C306.578 76.4484 306.297 76.6554 305.765 76.951L303.105 77.084L302.794 77.35L302.484 77.217C302.277 77.1579 302.114 77.1579 301.996 77.217L301.597 75.0887C301.567 74.9409 301.553 74.7635 301.553 74.5566C301.553 74.3792 301.567 74.1575 301.597 73.8915V67.1962L299.602 59.5253C299.513 59.4958 299.794 59.481 300.444 59.481L302.04 61.831L302.262 61.6093L301.597 59.1263V57.0423L301.464 54.9583V48.396L301.863 48.529L301.42 48.1743V47.2875L302.573 43.5629L303.238 43.0752L305.011 44.9818L306.74 44.5828C307.273 44.1098 307.627 43.5482 307.805 42.8978C307.893 42.5727 307.967 41.8632 308.026 40.7695L308.869 40.2818L309.49 40.9025L310.82 45.7356C311.707 45.6765 312.579 46.5337 313.436 48.3073C314.973 51.4702 315.904 53.2734 316.229 53.7168L316.584 51.5441C316.82 51.3372 317.116 51.2338 317.471 51.2338L319.51 58.0178C320.249 58.1656 320.9 58.9637 321.461 60.4121C322.053 61.9493 322.555 62.8213 322.969 63.0282V52.9187L323.545 50.613L322.969 46.1347V40.0157H323.811L325.009 44.8931C325.275 45.1592 325.393 45.2922 325.363 45.2922L326.915 43.7403C327.654 43.0013 328.068 42.2032 328.157 41.3459L328.822 41.1686C328.822 41.5824 328.837 41.8041 328.866 41.8337C328.837 41.8632 328.822 41.9371 328.822 42.0554C328.822 42.4397 328.999 42.8831 329.354 43.3856C329.709 43.8881 330.063 44.1837 330.418 44.2724L330.994 43.962L331.793 44.3167V47.2432L331.083 50.3913L330.95 53.8055L331.305 56.2442L331.704 54.4706L332.369 54.3376L333.167 56.8206ZM363.29 46.0903V54.2932L361.694 54.7366L359.787 51.9432L357.748 52.963C357.157 52.6674 356.757 52.5196 356.551 52.5196L353.757 52.0762L350.964 51.1894L349.456 51.9432L349.013 51.8102L346.175 53.2291C345.85 53.4951 345.687 54.1159 345.687 55.0913V56.0225L344.313 59.2593V63.9593L346.352 68.216L347.239 66.6197V63.8263L348.17 63.3386L348.968 66.3537C348.968 66.5015 349.057 66.738 349.234 67.0631L349.101 68.1273L349.545 69.1915C349.574 69.2506 349.944 69.2358 350.653 69.1471L352.161 69.9896L353.58 70.1226C354.496 69.4132 355.043 69.0732 355.22 69.1028L356.418 67.3292L357.615 68.216H358.147L360.719 64.4914C361.458 65.3487 361.827 65.9103 361.827 66.1763V74.7783L360.896 77.0396H360.364L359.521 76.0198L358.502 77.217L356.107 77.7934C355.959 77.7934 355.752 77.823 355.486 77.8821C355.22 77.9412 355.013 77.9708 354.866 77.9708L352.338 77.5274L350.033 77.9708L348.88 77.5274L348.082 77.6604C347.165 77.483 345.155 76.7736 342.051 75.5321C340.721 74.261 338.711 72.3396 336.021 69.7679C335.578 69.354 335.356 68.8515 335.356 68.2603V65.0235L334.336 60.0131L335.489 49.9036L335.844 49.5932H336.509L337.13 51.3668L337.484 51.4998C338.992 49.5784 339.879 48.396 340.145 47.9526C341.061 46.4746 341.534 45.1001 341.564 43.829H342.45L343.293 46.179L345.155 44.8045H346.929L348.259 43.962L349.589 43.696L351.363 40.1488H351.895L352.782 43.3856L353.181 43.696H354.644L359.521 46.312L359.654 46.179L360.275 46.6224H360.674L362.137 43.696L362.758 43.0752L363.113 43.4299L363.29 46.0903ZM387.772 74.2019L386.929 77.084C386.722 76.9362 386.412 76.8771 385.998 76.9066C385.821 76.4041 385.525 76.0198 385.111 75.7538L383.027 76.6406C382.614 76.7588 382.259 76.8179 381.963 76.8179C381.697 76.8179 381.476 76.7588 381.298 76.6406L379.525 76.9066L377.751 76.7736C377.544 76.7736 377.352 76.8771 377.175 77.084L376.82 76.7736L374.958 76.6406C374.603 76.611 374.248 76.4041 373.893 76.0198L371.898 75.8868L368.44 76.6406L366.888 76.0198C366.563 76.0198 366.4 76.1233 366.4 76.3302L366.178 75.9311H364.715L363.917 74.6453L364.715 68.0386V61.9197L363.651 56.9093V54.6479L364.006 54.1602L364.493 54.6036H364.937L365.025 54.7366V41.0356L365.646 40.5922L367.154 44.2724H368.972L370.745 39.9714H371.588L373.051 44.9818C373.287 44.7749 373.539 44.701 373.805 44.7601C374.455 44.8192 374.839 44.8488 374.958 44.8488L376.864 45.2035L379.658 45.1592C380.219 45.0409 380.633 44.4793 380.899 43.4743C381.047 42.9717 381.209 42.2032 381.387 41.1686L382.052 40.7252L385.289 44.2724L386.486 43.0752C386.575 43.1934 386.782 43.2526 387.107 43.2526L387.506 43.3856C387.683 43.4743 387.772 43.5925 387.772 43.7403V49.6819L386.796 50.9234L383.471 51.1007L382.318 50.1696L380.323 50.9234L380.101 50.746L378.327 51.1007H376.953L375.933 51.3668C375.963 51.3077 375.977 51.2633 375.977 51.2338C375.977 51.1451 375.903 51.1007 375.756 51.1007H374.248L373.672 54.2045L374.115 54.5593L375.357 54.9583L376.687 53.2734L377.485 53.0517L377.973 55.2244L379.879 56.2442C380.116 56.0077 380.441 55.8895 380.855 55.8895C381.298 55.8895 381.653 56.0077 381.919 56.2442C382.894 56.1851 383.53 55.7417 383.826 54.914C384.239 53.8203 384.565 53.1995 384.801 53.0517L385.333 52.83L385.777 55.1357V60.4565L385.156 61.698L384.402 61.565L383.826 61.831L380.722 61.3876L378.549 61.831H373.672V66.7971L374.115 69.1028L374.514 69.3688L376.11 69.0584L377.574 68.7924L378.593 66.5754H379.259L380.855 69.9009C380.973 69.8418 381.209 69.8122 381.564 69.8122C381.948 69.8122 382.451 69.8418 383.072 69.9009L386.309 68.7481L387.55 68.482L387.772 70.3443V74.2019ZM421.31 60.4565L419.359 68.1716L417.408 71.4528H416.698L415.501 73.049L413.107 74.1132H412.531L404.372 75.7538H392.844C392.666 75.5469 392.43 75.4434 392.134 75.4434L391.513 75.5764L390.848 75.0887V68.5707L389.075 61.7867C389.193 61.4615 389.444 61.0477 389.828 60.5452L389.695 55.0027L388.809 51.4555C388.809 50.9825 388.971 50.6573 389.296 50.48C389.622 50.5687 390.035 50.8051 390.538 51.1894C390.567 51.219 390.671 51.1894 390.848 51.1007V40.1488L391.735 40.2818C391.765 40.3705 391.972 41.0356 392.356 42.2771C392.592 43.0456 393.154 43.6516 394.041 44.095L396.036 43.6516L396.568 43.829C396.716 43.829 396.79 43.7255 396.79 43.5186H398.608C398.992 43.5186 399.435 43.0161 399.938 42.011C400.47 41.006 400.825 40.4739 401.002 40.4148L402.377 43.2526L408.895 45.6026L409.648 45.4252L411.865 46.046L412.752 43.2526L413.284 43.0752L415.679 48.13C415.826 48.1595 415.945 48.1743 416.033 48.1743C416.122 48.1743 416.211 48.1595 416.299 48.13L417.053 46.9328C417.29 46.9328 417.452 46.8737 417.541 46.7554L420.733 56.1555L421.31 60.4565ZM411.555 60.5008L410.979 58.0621V56.8649L410.092 54.3819V53.7611L408.85 52.83H407.964L405.88 50.613L405.081 51.6772C404.727 51.6772 404.357 51.4702 403.973 51.0564L402.155 51.8102H401.446L399.672 51.2338V67.0631C399.672 67.2109 399.923 67.5213 400.426 67.9943C400.958 68.4377 401.298 68.6594 401.446 68.6594H402.066L404.86 64.8018H405.392C405.953 64.8018 406.441 65.1861 406.855 65.9546C407.003 66.2207 407.298 66.7675 407.742 67.5952C407.83 67.5952 407.964 67.5361 408.141 67.4179L408.318 64.2697C408.259 63.0873 408.584 62.3335 409.294 62.0084H409.826C410.269 62.304 410.58 62.6883 410.757 63.1612L411.555 60.5008Z" fill="black"/>
<rect x="226.456" y="176.092" width="450.051" height="119.415" rx="59.7077" fill="black" stroke="black" stroke-width="2.98462"/>
<rect x="188.492" y="142.492" width="475.361" height="119.415" rx="59.7077" fill="#EE3B6E" stroke="black" stroke-width="2.98462"/>
<path d="M327.881 217.109L324.866 217.463L323.447 217.862C323.211 217.774 322.812 217.641 322.25 217.463L321.23 217.641C320.757 217.641 320.299 217.493 319.856 217.197L317.373 217.862L313.826 218.173L312.318 218.66L311.298 217.463L310.943 217.774C311.003 217.921 310.943 218.025 310.766 218.084L310.234 218.261C310.057 218.32 309.924 218.35 309.835 218.35H309.214L306.864 216.576C306.421 216.754 306.14 216.961 306.022 217.197L304.248 216.709V212.541L303.273 209.571C303.361 209.364 303.672 209.157 304.204 208.95V201.589L301.942 194.805L302.563 192.943H303.095L304.381 194.717C304.263 194.717 304.219 194.613 304.248 194.406V183.366L305.445 183.055L306.908 185.716H307.441L309.125 184.652C309.185 184.681 309.362 184.696 309.658 184.696L310.81 181.149L311.653 180.971L312.761 184.297L312.628 197.51C312.776 197.185 312.924 196.993 313.072 196.934C313.279 196.993 313.545 197.215 313.87 197.599C314.195 197.954 314.358 198.234 314.358 198.441L312.628 202.787V203.496L312.85 205.89C312.85 206.304 312.968 206.57 313.205 206.689L313.959 205.935L314.757 206.112L315.821 209.216L317.417 210.103L318.393 211.256L319.723 209.216H320.344L321.275 210.28C321.393 210.428 321.615 210.502 321.94 210.502C322.117 210.502 322.368 210.457 322.694 210.369C323.048 210.28 323.3 210.236 323.447 210.236C323.743 210.236 323.994 210.339 324.201 210.546C324.349 210.546 324.423 210.443 324.423 210.236H325.088L325.797 210.812L326.817 210.546L327.881 210.99V217.109ZM353.137 201.323C353.137 201.974 352.309 203.112 350.654 204.738C348.999 206.363 347.802 207.265 347.063 207.442L345.555 208.152L342.85 208.773L341.032 208.019L337.574 208.595C337.396 208.625 337.101 208.536 336.687 208.329L336.421 208.551V218.971L331.277 219.104C331.159 219.104 330.967 219.119 330.701 219.148C330.465 219.207 330.287 219.237 330.169 219.237C329.755 219.237 329.46 219.148 329.282 218.971L328.706 219.104C328.528 219.192 328.307 219.237 328.041 219.237L327.597 217.419L327.863 216.532C327.745 216.355 327.686 216.133 327.686 215.867C327.686 215.749 327.701 215.616 327.73 215.468V209.438L326.444 205.58V199.151C326.622 199.446 327.05 199.949 327.73 200.658V191.391L328.484 188.731L327.73 186.514V183.188H328.883L331.233 185.538L334.381 184.519L336.377 184.962L337.707 184.12V182.169L338.594 181.991L339.525 182.789L340.278 185.272H341.786L343.294 180.705L344.402 180.838L345.112 182.967V185.317L346.264 186.736L347.861 182.036L348.526 182.169L350.078 185.76V187.844L350.876 189.174C351.349 189.115 351.851 189.13 352.383 189.219L353.137 193.165V201.323ZM344.269 199.683L343.382 195.515V194.451C343.057 194.155 342.599 193.8 342.008 193.387L341.431 193.564L339.924 191.17L338.993 193.121L337.884 192.81H337.13L336.51 192.5L336.022 192.855V199.86L336.953 200.259H337.84L338.904 200.791L339.658 200.481L340.545 198.131H340.944L341.476 198.53L342.229 200.259L342.895 200.481L344.269 199.683ZM371.169 193.121L370.46 194.672V195.958L371.169 198.84C371.288 199.372 371.169 199.831 370.815 200.215C370.46 200.599 370.016 200.836 369.484 200.924L366.957 201.368L365.316 200.791C364.696 200.91 364.119 200.407 363.587 199.284C363.173 198.397 362.952 197.584 362.922 196.845L363.809 194.14L365.316 193.121V190.771C365.553 190.652 365.848 190.445 366.203 190.15L367.046 190.771L367.578 192.81C367.637 192.751 367.696 192.751 367.755 192.81C367.844 192.899 367.918 192.943 367.977 192.943L369.174 189.573L370.149 189.884L371.169 193.121ZM371.48 210.768C371.48 211.507 371.11 212.142 370.371 212.674C369.632 213.177 368.893 213.399 368.154 213.34L364.873 212.719L363.188 210.945V210.147L364.873 206.999L365.05 207.132L365.272 206.866L365.139 205.846L366.07 205.048H367.223L367.799 203.806H369.085L369.573 204.959V206.6L371.48 209.571V210.768ZM425.207 208.551C424.409 211.891 423.315 214.182 421.926 215.424L421.039 215.113L419.842 216.443C419.251 216.503 418.866 216.562 418.689 216.621C418.246 216.769 417.95 217.005 417.802 217.33L413.767 217.463C413.531 217.493 413.324 217.508 413.146 217.508C412.91 217.508 412.718 217.478 412.57 217.419L405.786 217.774L405.077 217.463L404.899 217.641L402.549 216.887L398.248 217.641L397.583 217.153L396.386 215.069V209.127L395.011 204.117V201.102L395.898 200.703L396.164 201.678C396.342 202.122 396.534 202.373 396.741 202.432L396.829 200.836L395.499 193.475L396.386 190.638V183.41L396.253 182.302H397.095L399.312 185.538H400.598L402.061 184.519L404.411 184.962L406.185 182.302H407.294L410.353 185.095L412.26 183.188L413.102 183.055L415.807 184.075L417.27 180.971L417.935 181.149L419.753 186.824V187.977L421.615 190.859L422.014 190.15H422.68L423.478 192.633V194.052L422.103 197.2L419.664 198.707L419.531 198.574L417.846 200.126L418.068 200.348C418.718 200.2 419.014 200.126 418.955 200.126C419.191 200.126 419.384 200.318 419.531 200.703L420.063 200.348L420.817 199.461C420.965 199.491 421.349 199.594 421.97 199.772L422.68 203.629C422.739 203.718 422.813 203.762 422.901 203.762L423.611 202.255L424.143 202.122L425.207 207.354V208.551ZM412.526 194.495L411.018 192.81L409.91 192.367C409.318 193.549 408.742 194.14 408.18 194.14L406.673 193.52C406.466 193.579 406.244 193.608 406.008 193.608C405.623 193.608 405.224 193.49 404.811 193.254V197.51L406.096 196.047H406.495L407.604 196.623L409.111 196.269C409.407 196.328 409.644 196.357 409.821 196.357C410.028 196.357 410.176 196.328 410.264 196.269L412.038 195.604L412.526 194.495ZM414.565 207.221L413.501 204.339H411.417C411.122 204.339 410.678 204.043 410.087 203.452H409.599L408.003 204.782L405.609 204.339C405.52 204.427 405.446 204.59 405.387 204.826V209.039L406.584 207.398L407.072 207.265L408.446 209.925L409.333 208.906L411.55 209.925C411.964 209.6 412.467 209.452 413.058 209.482L414.565 207.221ZM455.717 201.589L454.387 208.24L453.589 213.65L453.412 213.473L452.835 214.226L452.658 214.093L447.115 218.926L443.79 220.345C443.672 220.109 443.465 219.991 443.169 219.991C442.962 219.991 442.667 220.05 442.282 220.168C441.898 220.286 441.617 220.345 441.44 220.345L439.799 219.858H438.159L433.37 217.907C433.311 217.907 433.193 217.966 433.015 218.084L429.69 215.069C429.69 214.98 429.734 214.877 429.823 214.758C429.084 214.049 428.433 213.192 427.872 212.187C427.222 211.034 426.896 210.014 426.896 209.127V207.354L425.3 200.88V197.821L426.497 199.151L426.719 198.885L426.586 192.012L426.143 188.554L426.497 187.933L427.384 188.376L428.714 185.627V182.523L429.424 181.282H429.956L431.286 186.026H432.128C432.247 186.026 432.321 185.997 432.35 185.937C432.38 185.878 432.439 185.849 432.528 185.849L433.592 184.962H434.079L435.011 188.154L434.39 190.682V195.471L435.631 192.677H436.474V194.495L434.7 206.157L435.72 209.97L437.272 210.679L438.292 208.196L439.134 208.329L440.154 210.857C440.893 210.857 441.277 210.842 441.307 210.812L441.617 211.123C442.149 211.034 443.007 210.768 444.189 210.324C444.751 209.999 445.135 209.645 445.342 209.26L444.898 204.693V196.889C444.839 196.86 444.81 196.83 444.81 196.801C444.81 196.594 444.928 196.49 445.164 196.49L446.628 198.574C446.657 198.515 446.775 198.382 446.982 198.175L446.672 195.249V184.031C446.642 183.794 446.982 183.573 447.692 183.366L449.155 187.046L449.332 186.78L449.953 181.149C450.19 180.912 450.367 180.838 450.485 180.927C450.603 181.075 450.751 181.149 450.929 181.149L452.436 187.223L452.835 187.622H453.234L453.944 186.736L454.609 186.603C454.816 186.809 454.949 186.913 455.008 186.913V190.238L454.387 194.938C454.565 195.116 454.771 195.205 455.008 195.205V198.264C455.037 198.205 455.111 198.161 455.23 198.131L455.717 201.589ZM488.901 216.089L488.546 216.443L487.304 216.133L485.442 216.576L483.979 216L481.274 217.02C481.067 216.813 480.816 216.709 480.52 216.709C480.313 216.709 479.959 216.783 479.456 216.931C478.954 217.079 478.629 217.168 478.481 217.197L477.55 216.532C477.668 215.025 476.781 213.606 474.889 212.275L474.313 209.482L473.914 209.704L473.16 209.925L470.455 205.58H466.287V207.93L466.553 208.152C466.849 208.063 467.144 208.019 467.44 208.019C467.677 208.255 467.795 208.418 467.795 208.507V214.315C467.795 215.054 466.878 215.616 465.046 216L463.095 215.246L459.415 216L458.395 215.202V208.861L455.956 199.461H456.665L458.661 201.678V191.835L457.863 189.174L457.02 181.77C457.109 181.503 457.286 181.37 457.552 181.37C457.641 181.37 457.744 181.385 457.863 181.415L459.725 184.829L460.567 183.632H462.341L462.651 183.188L463.716 183.499L464.691 183.188L465.445 183.499L466.376 183.321L469.081 184.075L469.347 183.987L469.879 184.075L470.455 181.149C470.662 181.031 470.825 180.868 470.943 180.661C471.061 180.779 471.224 180.838 471.431 180.838L473.781 184.652L475.111 184.075L475.998 184.652C476.737 184.386 477.18 183.75 477.328 182.745C477.505 181.533 477.742 180.75 478.037 180.395C478.303 180.631 478.436 180.794 478.436 180.883V181.77L479.678 185.405L481.097 181.725C481.333 181.725 481.511 181.681 481.629 181.592V183.233L482.87 186.647V187.401L484.91 193.298V197.2L482.25 200.924L480.919 201.368L480.698 201.235L479.013 202.077L480.698 205.358L481.851 202.565H482.25L483.713 208.64L484.555 209.571L485.619 209.349L486.107 209.659L486.95 212.453H487.703L488.147 215.158L488.901 215.601V216.089ZM474.889 193.298L473.204 191.347C472.938 191.347 472.731 191.391 472.584 191.48L470.81 190.593C470.603 190.771 470.381 190.859 470.145 190.859H469.036L468.017 191.17C467.869 191.11 467.721 191.081 467.573 191.081C467.425 191.081 467.248 191.125 467.041 191.214L466.465 191.835L467.041 197.2L467.883 197.688L469.214 194.273H469.746L470.145 194.672L470.899 197.244H472.317L472.451 197.067L473.16 197.377L473.958 196.889L474.889 193.298ZM522.137 197.821L521.383 202.166L521.517 204.117C521.339 204.324 521.25 204.664 521.25 205.137L520.63 208.817L520.718 208.906L520.984 208.595L521.65 208.773L520.807 216.975L520.142 218.483C519.965 218.453 519.654 218.217 519.211 217.774L515.664 217.951L513.89 217.197C513.713 217.197 513.58 217.242 513.491 217.33L511.939 216.576L511.496 213.872L510.653 211.876L510.121 212.586H509.19L508.392 211.078L502.317 202.964L498.504 196.623C498.356 196.623 498.194 196.712 498.016 196.889V197.909L498.46 199.816L499.213 203.94C499.213 204.087 499.11 204.25 498.903 204.427V207.132L500.012 206.245L500.987 206.556L501.297 207.575L499.79 212.541L500.411 215.468L499.613 218.35C499.583 218.35 499.48 218.394 499.302 218.483C499.154 218.542 499.08 218.542 499.08 218.483C498.785 218.247 498.356 217.966 497.795 217.641L496.198 217.774C495.932 217.803 495.725 217.655 495.578 217.33C495.548 217.448 495.267 217.655 494.735 217.951L492.075 218.084L491.764 218.35L491.454 218.217C491.247 218.158 491.084 218.158 490.966 218.217L490.567 216.089C490.538 215.941 490.523 215.764 490.523 215.557C490.523 215.379 490.538 215.158 490.567 214.891V208.196L488.572 200.525C488.483 200.496 488.764 200.481 489.414 200.481L491.011 202.831L491.232 202.609L490.567 200.126V198.042L490.434 195.958V189.396L490.833 189.529L490.39 189.174V188.287L491.543 184.563L492.208 184.075L493.981 185.982L495.711 185.583C496.243 185.11 496.597 184.548 496.775 183.898C496.863 183.573 496.937 182.863 496.996 181.77L497.839 181.282L498.46 181.903L499.79 186.736C500.677 186.676 501.549 187.534 502.406 189.307C503.943 192.47 504.874 194.273 505.199 194.717L505.554 192.544C505.791 192.337 506.086 192.234 506.441 192.234L508.481 199.018C509.22 199.166 509.87 199.964 510.432 201.412C511.023 202.949 511.525 203.821 511.939 204.028V193.919L512.515 191.613L511.939 187.135V181.016H512.782L513.979 185.893C514.245 186.159 514.363 186.292 514.333 186.292L515.885 184.74C516.624 184.001 517.038 183.203 517.127 182.346L517.792 182.169C517.792 182.582 517.807 182.804 517.836 182.834C517.807 182.863 517.792 182.937 517.792 183.055C517.792 183.44 517.969 183.883 518.324 184.386C518.679 184.888 519.033 185.184 519.388 185.272L519.965 184.962L520.763 185.317V188.243L520.053 191.391L519.92 194.805L520.275 197.244L520.674 195.471L521.339 195.338L522.137 197.821ZM551.063 190.859L550.93 191.879L549.068 192.81L548.092 192.5L542.905 193.254L542.195 193.52V197.422C542.727 197.392 543.289 196.742 543.88 195.471L544.545 195.781V197.909L542.816 202.21V209.438L542.905 211.034V217.907L541.53 218.35L540.821 218.217L539.934 218.439L536.963 218.527L536.342 218.66L535.056 218.217L534.303 218.527C533.978 218.32 533.667 218.217 533.372 218.217L533.061 217.596C533.061 217.242 533.209 216.931 533.505 216.665L531.731 206.955L530.534 204.25L530.844 203.452H531.376L532.795 204.649V193.963L532.086 193.697H530.889C530.77 193.52 530.327 193.416 529.558 193.387L527.297 192.81L525.169 193.254L523.617 193.387L524.016 190.416L523.439 187.711L524.193 184.075H524.725L526.499 186.425L531.775 186.292C532.396 186.204 532.736 185.937 532.795 185.494V182.169L534.037 181.725C534.244 181.932 534.391 182.036 534.48 182.036L535.234 185.893C535.323 185.952 535.603 186.085 536.076 186.292L536.919 185.583C537.214 185.583 537.436 185.716 537.584 185.982C537.613 186.041 537.643 186.07 537.673 186.07C537.732 186.041 537.761 185.967 537.761 185.849V183.853L539.003 180.705C539.151 180.705 539.328 180.809 539.535 181.016L539.402 181.636L540.865 185.45L542.417 186.425C542.565 186.277 542.668 186.204 542.727 186.204C542.757 186.204 542.772 186.233 542.772 186.292H545.077L547.871 186.159L548.403 184.74V183.41L549.157 182.036C549.245 181.976 549.364 181.947 549.511 181.947C549.689 181.947 549.91 182.021 550.176 182.169L550.487 183.543V188.864L551.063 190.859Z" fill="black"/>
</svg>
