<svg width="194" height="65" viewBox="0 0 194 65" fill="none" xmlns="http://www.w3.org/2000/svg">
<rect x="16" y="15" width="177" height="49" rx="24.5" fill="black" stroke="black" stroke-width="2"/>
<rect x="1" y="1" width="187" height="49" rx="24.5" fill="#EED63B" stroke="black" stroke-width="2"/>
<path d="M42.763 29.472C42.385 31.054 41.867 32.139 41.209 32.727L40.789 32.58L40.222 33.21C39.942 33.238 39.76 33.266 39.676 33.294C39.466 33.364 39.326 33.476 39.256 33.63L37.345 33.693C37.233 33.707 37.135 33.714 37.051 33.714C36.939 33.714 36.848 33.7 36.778 33.672L33.565 33.84L33.229 33.693L33.145 33.777L32.032 33.42L29.995 33.777L29.68 33.546L29.113 32.559V29.745L28.462 27.372V25.944L28.882 25.755L29.008 26.217C29.092 26.427 29.183 26.546 29.281 26.574L29.323 25.818L28.693 22.332L29.113 20.988V17.565L29.05 17.04H29.449L30.499 18.573H31.108L31.801 18.09L32.914 18.3L33.754 17.04H34.279L35.728 18.363L36.631 17.46L37.03 17.397L38.311 17.88L39.004 16.41L39.319 16.494L40.18 19.182V19.728L41.062 21.093L41.251 20.757H41.566L41.944 21.933V22.605L41.293 24.096L40.138 24.81L40.075 24.747L39.277 25.482L39.382 25.587C39.69 25.517 39.83 25.482 39.802 25.482C39.914 25.482 40.005 25.573 40.075 25.755L40.327 25.587L40.684 25.167C40.754 25.181 40.936 25.23 41.23 25.314L41.566 27.141C41.594 27.183 41.629 27.204 41.671 27.204L42.007 26.49L42.259 26.427L42.763 28.905V29.472ZM36.757 22.815L36.043 22.017L35.518 21.807C35.238 22.367 34.965 22.647 34.699 22.647L33.985 22.353C33.887 22.381 33.782 22.395 33.67 22.395C33.488 22.395 33.299 22.339 33.103 22.227V24.243L33.712 23.55H33.901L34.426 23.823L35.14 23.655C35.28 23.683 35.392 23.697 35.476 23.697C35.574 23.697 35.644 23.683 35.686 23.655L36.526 23.34L36.757 22.815ZM37.723 28.842L37.219 27.477H36.232C36.092 27.477 35.882 27.337 35.602 27.057H35.371L34.615 27.687L33.481 27.477C33.439 27.519 33.404 27.596 33.376 27.708V29.703L33.943 28.926L34.174 28.863L34.825 30.123L35.245 29.64L36.295 30.123C36.491 29.969 36.729 29.899 37.009 29.913L37.723 28.842ZM57.2131 26.175L56.5831 29.325L56.2051 31.887L56.1211 31.803L55.8481 32.16L55.7641 32.097L53.1391 34.386L51.5641 35.058C51.5081 34.946 51.4101 34.89 51.2701 34.89C51.1721 34.89 51.0321 34.918 50.8501 34.974C50.6681 35.03 50.5351 35.058 50.4511 35.058L49.6741 34.827H48.8971L46.6291 33.903C46.6011 33.903 46.5451 33.931 46.4611 33.987L44.8861 32.559C44.8861 32.517 44.9071 32.468 44.9491 32.412C44.5991 32.076 44.2911 31.67 44.0251 31.194C43.7171 30.648 43.5631 30.165 43.5631 29.745V28.905L42.8071 25.839V24.39L43.3741 25.02L43.4791 24.894L43.4161 21.639L43.2061 20.001L43.3741 19.707L43.7941 19.917L44.4241 18.615V17.145L44.7601 16.557H45.0121L45.6421 18.804H46.0411C46.0971 18.804 46.1321 18.79 46.1461 18.762C46.1601 18.734 46.1881 18.72 46.2301 18.72L46.7341 18.3H46.9651L47.4061 19.812L47.1121 21.009V23.277L47.7001 21.954H48.0991V22.815L47.2591 28.338L47.7421 30.144L48.4771 30.48L48.9601 29.304L49.3591 29.367L49.8421 30.564C50.1921 30.564 50.3741 30.557 50.3881 30.543L50.5351 30.69C50.7871 30.648 51.1931 30.522 51.7531 30.312C52.0191 30.158 52.2011 29.99 52.2991 29.808L52.0891 27.645V23.949C52.0611 23.935 52.0471 23.921 52.0471 23.907C52.0471 23.809 52.1031 23.76 52.2151 23.76L52.9081 24.747C52.9221 24.719 52.9781 24.656 53.0761 24.558L52.9291 23.172V17.859C52.9151 17.747 53.0761 17.642 53.4121 17.544L54.1051 19.287L54.1891 19.161L54.4831 16.494C54.5951 16.382 54.6791 16.347 54.7351 16.389C54.7911 16.459 54.8611 16.494 54.9451 16.494L55.6591 19.371L55.8481 19.56H56.0371L56.3731 19.14L56.6881 19.077C56.7861 19.175 56.8491 19.224 56.8771 19.224V20.799L56.5831 23.025C56.6671 23.109 56.7651 23.151 56.8771 23.151V24.6C56.8911 24.572 56.9261 24.551 56.9821 24.537L57.2131 26.175ZM72.5092 20.589C72.5092 20.883 72.0962 21.422 71.2702 22.206C70.9342 23.312 70.4372 24.355 69.7792 25.335C68.9812 26.525 68.1412 27.281 67.2592 27.603V28.38L67.7002 27.687H67.9522L68.0992 27.855L67.5322 33.966C67.3922 34.162 67.2872 34.26 67.2172 34.26H66.3562C66.3002 34.26 66.2722 34.309 66.2722 34.407L66.1042 34.26L64.2142 34.47C64.0882 34.47 64.0252 34.519 64.0252 34.617L63.9202 34.47C63.8502 34.47 63.8152 34.519 63.8152 34.617C63.7312 34.519 63.6052 34.47 63.4372 34.47L63.2062 33.819V32.349L62.4922 30.522V29.724C62.5622 29.724 62.6882 29.675 62.8702 29.577L62.9332 28.842C62.9892 28.198 62.7862 27.624 62.3242 27.12C61.7082 26.448 61.3232 25.671 61.1692 24.789L60.9802 23.739L60.8542 23.613C60.8402 23.711 60.7982 23.851 60.7282 24.033C60.6722 23.991 60.5742 24.04 60.4342 24.18L57.7882 20.022C57.7462 19.924 57.7392 19.812 57.7672 19.686C57.7812 19.546 57.7882 19.462 57.7882 19.434L58.5232 18.951L58.7332 16.641C58.8732 16.599 59.0342 16.69 59.2162 16.914L59.9512 19.077L60.2032 18.888L60.4762 16.914L60.6442 16.767H60.9592L62.0092 19.644C62.5412 20.134 62.8282 20.463 62.8702 20.631C63.0522 21.331 63.2692 21.954 63.5212 22.5L63.6472 22.374V21.534H64.0882L64.2352 21.66C64.4172 21.772 64.5432 22.038 64.6132 22.458L64.8862 24.138C65.0402 24.25 65.2152 24.523 65.4112 24.957L66.5242 23.088V19.56L66.9022 19.644L67.5322 21.681C67.5742 21.723 67.6302 21.744 67.7002 21.744L68.4562 19.497L69.0022 19.161V18.447C69.2262 18.349 69.3522 18.3 69.3802 18.3L69.6532 16.851L69.8212 16.767L70.8922 19.014L71.0812 18.972H71.4382C71.5782 18.944 71.7882 18.937 72.0682 18.951L72.5092 19.581V20.589ZM91.9639 31.6875H90.6514V33H89.3389V35.625H86.7139V33H85.4014V31.6875H84.0889V30.375H86.7139V31.6875H89.3389V29.0625H88.0264V27.75H86.7139V26.4375H85.4014V25.125H84.0889V22.5H85.4014V21.1875H86.7139V18.5625H89.3389V21.1875H90.6514V22.5H91.9639V23.8125H89.3389V22.5H86.7139V25.125H88.0264V26.4375H89.3389V27.75H90.6514V29.0625H91.9639V31.6875ZM109.026 26.112L108.102 29.766L107.178 31.32H106.842L106.275 32.076L105.141 32.58H104.868L101.004 33.357H95.5444C95.4604 33.259 95.3484 33.21 95.2084 33.21L94.9144 33.273L94.5994 33.042V29.955L93.7594 26.742C93.8154 26.588 93.9344 26.392 94.1164 26.154L94.0534 23.529L93.6334 21.849C93.6334 21.625 93.7104 21.471 93.8644 21.387C94.0184 21.429 94.2144 21.541 94.4524 21.723C94.4664 21.737 94.5154 21.723 94.5994 21.681V16.494L95.0194 16.557C95.0334 16.599 95.1314 16.914 95.3134 17.502C95.4254 17.866 95.6914 18.153 96.1114 18.363L97.0564 18.153L97.3084 18.237C97.3784 18.237 97.4134 18.188 97.4134 18.09H98.2744C98.4564 18.09 98.6664 17.852 98.9044 17.376C99.1564 16.9 99.3244 16.648 99.4084 16.62L100.059 17.964L103.146 19.077L103.503 18.993L104.553 19.287L104.973 17.964L105.225 17.88L106.359 20.274C106.429 20.288 106.485 20.295 106.527 20.295C106.569 20.295 106.611 20.288 106.653 20.274L107.01 19.707C107.122 19.707 107.199 19.679 107.241 19.623L108.753 24.075L109.026 26.112ZM104.406 26.133L104.133 24.978V24.411L103.713 23.235V22.941L103.125 22.5H102.705L101.718 21.45L101.34 21.954C101.172 21.954 100.997 21.856 100.815 21.66L99.9544 22.017H99.6184L98.7784 21.744V29.241C98.7784 29.311 98.8974 29.458 99.1354 29.682C99.3874 29.892 99.5484 29.997 99.6184 29.997H99.9124L101.235 28.17H101.487C101.753 28.17 101.984 28.352 102.18 28.716C102.25 28.842 102.39 29.101 102.6 29.493C102.642 29.493 102.705 29.465 102.789 29.409L102.873 27.918C102.845 27.358 102.999 27.001 103.335 26.847H103.587C103.797 26.987 103.944 27.169 104.028 27.393L104.406 26.133ZM124.145 27.96L123.935 32.433C123.921 32.699 123.83 32.965 123.662 33.231C123.466 33.539 123.249 33.693 123.011 33.693C122.801 33.693 122.654 33.672 122.57 33.63L121.31 34.47L120.869 34.386L120.806 34.323L119.966 34.533C119.924 34.491 119.854 34.442 119.756 34.386H119.42L119.126 34.533L118.832 34.386H117.656L115.766 34.26L115.073 33.84H114.296L113.225 33.273C113.085 33.021 112.742 32.741 112.196 32.433C111.65 32.111 111.314 31.845 111.188 31.635C110.95 31.243 110.74 30.865 110.558 30.501C110.39 30.137 110.11 29.304 109.718 28.002L109.865 22.164C109.963 22.164 110.012 22.115 110.012 22.017C110.11 22.115 110.194 22.164 110.264 22.164C110.278 22.066 110.285 22.213 110.285 22.605L110.537 23.13C110.761 23.032 110.985 22.738 111.209 22.248L111.839 20.841C112.077 20.631 112.462 20.281 112.994 19.791C113.61 18.405 113.918 17.565 113.918 17.271V16.788C113.974 16.704 114.086 16.606 114.254 16.494L114.401 16.788V17.901L115.094 19.077L115.808 18.783H117.383C117.537 18.783 117.754 18.454 118.034 17.796C118.16 17.502 118.335 17.068 118.559 16.494L118.811 16.557L120.323 18.867L120.386 18.783H120.764L121.31 19.224L122.675 19.497L123.158 18.111C123.298 17.957 123.41 17.88 123.494 17.88L123.977 18.678V22.185L123.284 23.613L122.969 23.697L120.659 22.017L120.197 22.08C120.155 22.08 120.134 22.101 120.134 22.143L118.979 21.513L117.11 22.08L116.69 22.143C115.164 22.899 114.401 24.033 114.401 25.545V27.057L114.842 26.217C115.094 26.217 115.227 26.224 115.241 26.238V29.094L116.837 30.774L118.013 31.152H119.063L119.693 30.9C119.791 30.9 119.882 30.949 119.966 31.047L120.071 30.921V29.136H117.068C117.11 29.108 117.131 29.08 117.131 29.052C117.131 29.01 117.11 28.968 117.068 28.926L117.425 24.264H117.761L118.643 26.217L118.853 26.091H119.21L120.302 25.965L120.995 24.264H121.184L122.633 26.133L123.83 25.083L123.977 25.251V27.015L124.145 27.96ZM134.634 21.996C134.592 21.996 134.522 22.045 134.424 22.143L133.773 22.269H132.156C132.086 22.269 132.037 22.255 132.009 22.227C131.995 22.227 131.974 22.241 131.946 22.269C131.918 22.297 131.89 22.311 131.862 22.311C131.848 22.311 131.834 22.304 131.82 22.29V24.831H132.261C132.261 24.845 132.282 24.894 132.324 24.978C132.38 25.048 132.408 25.118 132.408 25.188V26.112L131.778 28.779C131.778 28.821 131.799 28.898 131.841 29.01V29.325L132.387 30.627H133.059L133.689 30.333L134.214 30.417V32.979L133.647 33.966C133.507 33.966 133.339 34.064 133.143 34.26L132.639 34.176H128.04L127.536 34.407L127.116 34.26L126.633 34.47L125.919 34.176L124.995 34.26V31.761L125.289 31.11H126.171V29.808C126.297 29.682 126.5 29.577 126.78 29.493L126.969 29.787L127.221 28.212V26.889L126.171 24.222V23.928L126.486 23.697L127.326 24.327L127.368 24.264L127.179 22.269H127.053L125.583 22.143L124.974 21.933V20.568L125.121 20.421L124.911 19.329C124.925 19.161 125.065 18.965 125.331 18.741C125.597 18.517 125.814 18.419 125.982 18.447L126.843 18.573H128.229L128.481 18.384V17.145L128.775 16.41H129.321L130.161 18.111L131.358 18.657L131.673 18.51L132.156 18.72L132.723 18.51L132.807 18.594L133.185 18.51L133.542 17.334H133.794L134.214 19.938V21.408L134.634 21.996ZM150.121 33.042L149.953 33.21L149.365 33.063L148.483 33.273L147.79 33L146.509 33.483C146.411 33.385 146.292 33.336 146.152 33.336C146.054 33.336 145.886 33.371 145.648 33.441C145.41 33.511 145.256 33.553 145.186 33.567L144.745 33.252C144.801 32.538 144.381 31.866 143.485 31.236L143.212 29.913L143.023 30.018L142.666 30.123L141.385 28.065H139.411V29.178L139.537 29.283C139.677 29.241 139.817 29.22 139.957 29.22C140.069 29.332 140.125 29.409 140.125 29.451V32.202C140.125 32.552 139.691 32.818 138.823 33L137.899 32.643L136.156 33L135.673 32.622V29.619L134.518 25.167H134.854L135.799 26.217V21.555L135.421 20.295L135.022 16.788C135.064 16.662 135.148 16.599 135.274 16.599C135.316 16.599 135.365 16.606 135.421 16.62L136.303 18.237L136.702 17.67H137.542L137.689 17.46L138.193 17.607L138.655 17.46L139.012 17.607L139.453 17.523L140.734 17.88L140.86 17.838L141.112 17.88L141.385 16.494C141.483 16.438 141.56 16.361 141.616 16.263C141.672 16.319 141.749 16.347 141.847 16.347L142.96 18.153L143.59 17.88L144.01 18.153C144.36 18.027 144.57 17.726 144.64 17.25C144.724 16.676 144.836 16.305 144.976 16.137C145.102 16.249 145.165 16.326 145.165 16.368V16.788L145.753 18.51L146.425 16.767C146.537 16.767 146.621 16.746 146.677 16.704V17.481L147.265 19.098V19.455L148.231 22.248V24.096L146.971 25.86L146.341 26.07L146.236 26.007L145.438 26.406L146.236 27.96L146.782 26.637H146.971L147.664 29.514L148.063 29.955L148.567 29.85L148.798 29.997L149.197 31.32H149.554L149.764 32.601L150.121 32.811V33.042ZM143.485 22.248L142.687 21.324C142.561 21.324 142.463 21.345 142.393 21.387L141.553 20.967C141.455 21.051 141.35 21.093 141.238 21.093H140.713L140.23 21.24C140.16 21.212 140.09 21.198 140.02 21.198C139.95 21.198 139.866 21.219 139.768 21.261L139.495 21.555L139.768 24.096L140.167 24.327L140.797 22.71H141.049L141.238 22.899L141.595 24.117H142.267L142.33 24.033L142.666 24.18L143.044 23.949L143.485 22.248ZM162.187 33.525L160.759 33.693L160.087 33.882C159.975 33.84 159.786 33.777 159.52 33.693L159.037 33.777C158.813 33.777 158.596 33.707 158.386 33.567L157.21 33.882L155.53 34.029L154.816 34.26L154.333 33.693L154.165 33.84C154.193 33.91 154.165 33.959 154.081 33.987L153.829 34.071C153.745 34.099 153.682 34.113 153.64 34.113H153.346L152.233 33.273C152.023 33.357 151.89 33.455 151.834 33.567L150.994 33.336V31.362L150.532 29.955C150.574 29.857 150.721 29.759 150.973 29.661V26.175L149.902 22.962L150.196 22.08H150.448L151.057 22.92C151.001 22.92 150.98 22.871 150.994 22.773V17.544L151.561 17.397L152.254 18.657H152.506L153.304 18.153C153.332 18.167 153.416 18.174 153.556 18.174L154.102 16.494L154.501 16.41L155.026 17.985L154.963 24.243C155.033 24.089 155.103 23.998 155.173 23.97C155.271 23.998 155.397 24.103 155.551 24.285C155.705 24.453 155.782 24.586 155.782 24.684L154.963 26.742V27.078L155.068 28.212C155.068 28.408 155.124 28.534 155.236 28.59L155.593 28.233L155.971 28.317L156.475 29.787L157.231 30.207L157.693 30.753L158.323 29.787H158.617L159.058 30.291C159.114 30.361 159.219 30.396 159.373 30.396C159.457 30.396 159.576 30.375 159.73 30.333C159.898 30.291 160.017 30.27 160.087 30.27C160.227 30.27 160.346 30.319 160.444 30.417C160.514 30.417 160.549 30.368 160.549 30.27H160.864L161.2 30.543L161.683 30.417L162.187 30.627V33.525Z" fill="black"/>
</svg>
