<svg width="491" height="156" viewBox="0 0 491 156" fill="none" xmlns="http://www.w3.org/2000/svg">
<rect x="39.4562" y="35.0924" width="450.051" height="119.415" rx="59.7077" fill="black" stroke="black" stroke-width="2.98462"/>
<rect x="1.49231" y="1.49231" width="475.361" height="119.415" rx="59.7077" fill="#EED63B" stroke="black" stroke-width="2.98462"/>
<path d="M149.765 67.5509C148.967 70.8912 147.873 73.1821 146.484 74.4236L145.597 74.1132L144.4 75.4434C143.809 75.5025 143.424 75.5616 143.247 75.6208C142.804 75.7686 142.508 76.005 142.36 76.3302L138.325 76.4632C138.089 76.4928 137.882 76.5076 137.705 76.5076C137.468 76.5076 137.276 76.478 137.128 76.4189L130.344 76.7736L129.635 76.4632L129.457 76.6406L127.107 75.8868L122.806 76.6406L122.141 76.1528L120.944 74.0689V68.1273L119.57 63.1169V60.1018L120.456 59.7027L120.722 60.6782C120.9 61.1216 121.092 61.3728 121.299 61.432L121.387 59.8357L120.057 52.4753L120.944 49.6375V42.4101L120.811 41.3016H121.654L123.871 44.5384H125.156L126.62 43.5186L128.97 43.962L130.743 41.3016H131.852L134.911 44.095L136.818 42.1884L137.66 42.0554L140.365 43.0752L141.828 39.9714L142.493 40.1488L144.311 45.8243V46.9771L146.174 49.8592L146.573 49.1498H147.238L148.036 51.6328V53.0517L146.661 56.1998L144.223 57.7074L144.09 57.5744L142.405 59.1263L142.626 59.348C143.277 59.2002 143.572 59.1263 143.513 59.1263C143.75 59.1263 143.942 59.3184 144.09 59.7027L144.622 59.348L145.375 58.4612C145.523 58.4907 145.907 58.5942 146.528 58.7716L147.238 62.6291C147.297 62.7178 147.371 62.7622 147.459 62.7622L148.169 61.2546L148.701 61.1216L149.765 66.3537V67.5509ZM137.084 53.4951L135.576 51.8102L134.468 51.3668C133.877 52.5492 133.3 53.1404 132.739 53.1404L131.231 52.5196C131.024 52.5787 130.802 52.6083 130.566 52.6083C130.182 52.6083 129.783 52.4901 129.369 52.2536V56.5102L130.655 55.047H131.054L132.162 55.6234L133.67 55.2687C133.965 55.3278 134.202 55.3574 134.379 55.3574C134.586 55.3574 134.734 55.3278 134.822 55.2687L136.596 54.6036L137.084 53.4951ZM139.123 66.2207L138.059 63.3386H135.975C135.68 63.3386 135.236 63.043 134.645 62.4518H134.157L132.561 63.782L130.167 63.3386C130.078 63.4273 130.004 63.5898 129.945 63.8263V68.0386L131.142 66.398L131.63 66.265L133.005 68.9254L133.891 67.9056L136.108 68.9254C136.522 68.6003 137.025 68.4525 137.616 68.482L139.123 66.2207ZM180.275 60.5895L178.945 67.2405L178.147 72.65L177.97 72.4726L177.393 73.2264L177.216 73.0934L171.674 77.9264L168.348 79.3453C168.23 79.1088 168.023 78.9906 167.727 78.9906C167.52 78.9906 167.225 79.0497 166.84 79.168C166.456 79.2862 166.175 79.3453 165.998 79.3453L164.357 78.8576H162.717L157.928 76.9066C157.869 76.9066 157.751 76.9657 157.573 77.084L154.248 74.0689C154.248 73.9802 154.292 73.8767 154.381 73.7585C153.642 73.049 152.992 72.1918 152.43 71.1868C151.78 70.0339 151.454 69.0141 151.454 68.1273V66.3537L149.858 59.8801V56.8206L151.055 58.1508L151.277 57.8848L151.144 51.0121L150.701 47.5535L151.055 46.9328L151.942 47.3762L153.272 44.6271V41.5233L153.982 40.2818H154.514L155.844 45.0262H156.687C156.805 45.0262 156.879 44.9966 156.908 44.9375C156.938 44.8784 156.997 44.8488 157.086 44.8488L158.15 43.962H158.638L159.569 47.1545L158.948 49.6819V54.4706L160.189 51.6772H161.032V53.4951L159.258 65.1565L160.278 68.9698L161.83 69.6792L162.85 67.1962L163.692 67.3292L164.712 69.8566C165.451 69.8566 165.835 69.8418 165.865 69.8122L166.175 70.1226C166.707 70.0339 167.565 69.7679 168.747 69.3245C169.309 68.9993 169.693 68.6446 169.9 68.2603L169.457 63.6933V55.8895C169.397 55.8599 169.368 55.8303 169.368 55.8008C169.368 55.5939 169.486 55.4904 169.723 55.4904L171.186 57.5744C171.215 57.5153 171.334 57.3822 171.541 57.1753L171.23 54.2489V43.0309C171.201 42.7944 171.541 42.5727 172.25 42.3658L173.713 46.046L173.891 45.7799L174.511 40.1488C174.748 39.9123 174.925 39.8384 175.043 39.9271C175.162 40.0749 175.309 40.1488 175.487 40.1488L176.994 46.2233L177.393 46.6224H177.792L178.502 45.7356L179.167 45.6026C179.374 45.8095 179.507 45.913 179.566 45.913V49.2385L178.945 53.9385C179.123 54.1159 179.33 54.2045 179.566 54.2045V57.264C179.596 57.2049 179.67 57.1605 179.788 57.131L180.275 60.5895ZM212.572 48.7951C212.572 49.4158 211.7 50.5539 209.956 52.2092C209.246 54.5445 208.197 56.7467 206.808 58.8159C205.123 61.3285 203.349 62.9247 201.487 63.6046V65.2452L202.418 63.782H202.95L203.261 64.1367L202.063 77.0396C201.768 77.4535 201.546 77.6604 201.398 77.6604H199.58C199.462 77.6604 199.403 77.7639 199.403 77.9708L199.048 77.6604L195.058 78.1038C194.792 78.1038 194.659 78.2073 194.659 78.4142L194.437 78.1038C194.289 78.1038 194.215 78.2073 194.215 78.4142C194.038 78.2073 193.772 78.1038 193.417 78.1038L192.929 76.7293V73.6255L191.422 69.7679V68.083C191.57 68.083 191.836 67.9795 192.22 67.7726L192.353 66.2207C192.471 64.8609 192.043 63.649 191.067 62.5848C189.766 61.1659 188.954 59.5253 188.628 57.6631L188.229 55.4461L187.963 55.18C187.934 55.3869 187.845 55.6825 187.697 56.0668C187.579 55.9781 187.372 56.0816 187.076 56.3772L181.49 47.5979C181.401 47.391 181.386 47.1545 181.445 46.8884C181.475 46.5928 181.49 46.4155 181.49 46.3564L183.042 45.3365L183.485 40.4591C183.781 40.3705 184.12 40.5626 184.505 41.0356L186.057 45.6026L186.589 45.2035L187.165 41.0356L187.52 40.7252H188.185L190.402 46.7998C191.525 47.8344 192.131 48.529 192.22 48.8837C192.604 50.3617 193.062 51.6772 193.594 52.83L193.861 52.564V50.7904H194.792L195.102 51.0564C195.486 51.2929 195.752 51.8545 195.9 52.7413L196.477 56.2885C196.802 56.525 197.171 57.1014 197.585 58.0178L199.935 54.0715V46.6224L200.733 46.7998L202.063 51.1007C202.152 51.1894 202.27 51.2338 202.418 51.2338L204.014 46.4894L205.167 45.7799V44.2724C205.64 44.0655 205.906 43.962 205.965 43.962L206.542 40.9025L206.896 40.7252L209.158 45.4696L209.557 45.3809H210.311C210.606 45.3218 211.05 45.307 211.641 45.3365L212.572 46.6667V48.7951ZM268.259 56.8206L267.505 61.1659L267.638 63.1169C267.461 63.3238 267.372 63.6637 267.372 64.1367L266.752 67.8169L266.84 67.9056L267.106 67.5952L267.771 67.7726L266.929 75.9755L266.264 77.483C266.087 77.4535 265.776 77.217 265.333 76.7736L261.786 76.951L260.012 76.1972C259.835 76.1972 259.702 76.2415 259.613 76.3302L258.061 75.5764L257.618 72.8717L256.775 70.8764L256.243 71.5858H255.312L254.514 70.0783L248.439 61.964L244.626 55.6234C244.478 55.6234 244.316 55.7121 244.138 55.8895V56.9093L244.582 58.8159L245.335 62.9395C245.335 63.0873 245.232 63.2499 245.025 63.4273V66.132L246.134 65.2452L247.109 65.5556L247.419 66.5754L245.912 71.5415L246.533 74.4679L245.734 77.35C245.705 77.35 245.601 77.3944 245.424 77.483C245.276 77.5422 245.202 77.5422 245.202 77.483C244.907 77.2466 244.478 76.9657 243.917 76.6406L242.32 76.7736C242.054 76.8032 241.847 76.6554 241.7 76.3302C241.67 76.4484 241.389 76.6554 240.857 76.951L238.197 77.084L237.886 77.35L237.576 77.217C237.369 77.1579 237.206 77.1579 237.088 77.217L236.689 75.0887C236.66 74.9409 236.645 74.7635 236.645 74.5566C236.645 74.3792 236.66 74.1575 236.689 73.8915V67.1962L234.694 59.5253C234.605 59.4958 234.886 59.481 235.536 59.481L237.133 61.831L237.354 61.6093L236.689 59.1263V57.0423L236.556 54.9583V48.396L236.955 48.529L236.512 48.1743V47.2875L237.665 43.5629L238.33 43.0752L240.103 44.9818L241.833 44.5828C242.365 44.1098 242.719 43.5482 242.897 42.8978C242.985 42.5727 243.059 41.8632 243.118 40.7695L243.961 40.2818L244.582 40.9025L245.912 45.7356C246.799 45.6765 247.671 46.5337 248.528 48.3073C250.065 51.4702 250.996 53.2734 251.321 53.7168L251.676 51.5441C251.913 51.3372 252.208 51.2338 252.563 51.2338L254.602 58.0178C255.341 58.1656 255.992 58.9637 256.553 60.4121C257.145 61.9493 257.647 62.8213 258.061 63.0282V52.9187L258.637 50.613L258.061 46.1347V40.0157H258.903L260.101 44.8931C260.367 45.1592 260.485 45.2922 260.455 45.2922L262.007 43.7403C262.746 43.0013 263.16 42.2032 263.249 41.3459L263.914 41.1686C263.914 41.5824 263.929 41.8041 263.958 41.8337C263.929 41.8632 263.914 41.9371 263.914 42.0554C263.914 42.4397 264.091 42.8831 264.446 43.3856C264.801 43.8881 265.155 44.1837 265.51 44.2724L266.087 43.962L266.885 44.3167V47.2432L266.175 50.3913L266.042 53.8055L266.397 56.2442L266.796 54.4706L267.461 54.3376L268.259 56.8206ZM303.393 64.1367L302.816 68.2603C302.816 68.3786 302.875 68.482 302.994 68.5707C303.171 68.7481 303.304 68.8959 303.393 69.0141V69.9009C302.24 72.2657 300.422 74.5714 297.939 76.8179C295.692 78.8576 293.845 80.0695 292.396 80.4538L291.066 80.1434L289.913 81.3406H288.317L286.854 81.784L284.992 81.3406H283.795L282.775 80.8972L281.888 81.0746L280.558 80.1434L279.05 79.8331L271.734 72.2953V70.9651C270.67 69.3393 270.138 67.8465 270.138 66.4867C270.138 66.3389 270.153 66.1024 270.182 65.7773V65.0235C270.182 64.6983 270.153 64.2549 270.093 63.6933C270.034 63.0134 270.005 62.57 270.005 62.3631L269.561 52.7413L269.916 52.2536L270.581 52.3866L271.867 55.047L274.439 50.0809C274.439 49.9331 274.35 49.8592 274.173 49.8592V49.1941L274.483 48.8394H274.971L276.124 49.8592L277.099 46.2233C277.572 45.9869 277.868 45.8686 277.986 45.8686L279.405 46.6224C279.464 46.652 279.508 46.6667 279.538 46.6667C279.597 46.6372 279.627 46.5781 279.627 46.4894V39.7054C279.715 39.6462 279.789 39.6167 279.848 39.6167C279.907 39.6167 279.952 39.6315 279.981 39.661C280.07 39.5723 280.336 39.6315 280.779 39.8384L282.686 44.6271V45.6913H285.169L286.322 46.179L287.342 45.913L288.184 43.4299V42.8092L289.027 42.6318C289.795 43.6073 290.179 44.4497 290.179 45.1592C290.179 45.307 290.15 45.4252 290.091 45.5139L291.51 47.1988C291.746 47.051 291.968 47.0067 292.175 47.0658C292.382 47.1249 292.559 47.1693 292.707 47.1988H293.461L295.811 47.6866L296.83 48.8394L297.052 47.8639V46.2677L297.23 45.3365L297.895 45.1592L301.309 54.3376C301.397 54.4558 301.531 54.5888 301.708 54.7366C301.885 54.5593 302.003 54.4706 302.063 54.4706L303.393 57.4857V64.1367ZM293.727 67.9943V59.0376L293.239 59.1706L292.618 58.7716L290.978 55.0913L286.455 51.6328L285.391 54.0272H284.859L283.351 53.1404L281.755 55.3574L281.578 55.18L280.203 57.9291L279.76 60.8999L280.203 64.4471V65.6443L280.558 66.7084L281.489 65.8216H281.844L283.041 70.832C283.129 70.832 283.248 70.8912 283.395 71.0094C283.484 70.9207 283.647 70.5069 283.883 69.7679L284.282 65.6886C284.371 65.7773 284.548 65.8216 284.814 65.8216L286.1 69.4575L286.588 72.783L288.095 72.0292L288.672 72.2509H289.426L290.667 72.4726L293.727 67.9943ZM349.412 47.4649L345.377 61.7423L345.776 62.1857V66.6641L344.047 70.1226L343.16 70.3886L341.963 73.4481V75.5321L340.455 76.5962L336.82 76.9953L335.268 76.1972L332.43 77.084C332.134 76.8771 331.72 76.2267 331.188 75.133L327.952 70.3443L328.04 69.8566C328.129 69.5905 328.292 69.3984 328.528 69.2801V68.8811L327.819 67.1075C327.907 66.8414 328.099 66.5311 328.395 66.1763L327.198 60.8999C326.991 60.2791 326.769 59.8505 326.533 59.614C326.208 60.0279 326.045 60.486 326.045 60.9886C326.045 61.2546 326.089 61.5206 326.178 61.7867L323.03 69.8122L322.01 69.3688V74.6453L321.744 76.1528L320.148 77.1283C319.468 77.5422 318.862 77.823 318.33 77.9708L316.601 77.5274L316.335 77.6604L314.118 76.6406L311.945 76.9953L311.147 77.35C310.91 76.9953 310.792 76.6849 310.792 76.4189V75.0887C310.792 74.3497 310.748 73.7141 310.659 73.1821L310.083 69.6349L304.895 55.5347L305.427 55.047L306.136 55.4904L306.358 55.2687L304.451 49.3715V47.8639L305.338 44.1394L305.649 44.0063V41.479L306.491 41.0356L308.664 45.1592L309.018 44.1837V43.2969L309.639 40.1488C309.728 40.0305 309.89 39.8827 310.127 39.7054C310.245 39.7054 310.511 39.8088 310.925 40.0157L311.989 42.6761V43.2969L313.009 47.8639C313.009 48.2778 313.142 48.6029 313.408 48.8394H314.472L315.226 49.4602V53.8055L314.96 58.5942L315.669 62.7622L316.246 63.2056L316.867 65.5556C316.896 65.6443 316.955 65.6886 317.044 65.6886L318.285 62.4961V54.9583L318.685 54.4706C319.335 54.4706 319.926 54.914 320.458 55.8008L321.744 48.3073C321.833 48.2482 322.187 48.0856 322.808 47.8196C322.956 47.6127 323.089 47.2875 323.207 46.8441V43.5629L323.695 42.8092L324.537 42.8535L325.557 45.913C325.853 46.2086 326.075 46.3564 326.222 46.3564L327.553 42.0554C328.617 42.2623 329.341 43.1639 329.725 44.7601L329.991 47.2432L330.257 47.5092L330.701 47.2875C330.819 47.3466 331.011 47.3762 331.277 47.3762V49.3271L331.72 49.7262L332.386 47.3318L332.918 47.0658L333.716 49.6375L334.425 57.8848C334.662 57.8848 334.78 57.7813 334.78 57.5744C335.578 58.8159 336.051 59.7618 336.199 60.4121V64.5801L336.642 66.3094H336.864L338.904 59.3923L338.017 53.3177C338.076 53.1404 338.238 52.9335 338.505 52.697C338.771 52.6083 339.45 53.1552 340.544 54.3376V51.8545L341.83 48.3073V45.3809C341.653 45.2035 341.564 45.0409 341.564 44.8931C341.712 44.6567 341.978 44.4497 342.362 44.2724L342.672 44.5384L343.426 44.095L344.712 45.4252C345.481 44.5384 346.042 44.1541 346.397 44.2724L346.929 44.9818L347.949 42.8535L348.481 42.9422L349.412 44.6271V47.4649ZM358.629 53.6725L358.052 58.1065L356.722 64.4471V66.5311L355.037 67.3292L354.86 67.1518H352.909L352.155 65.2009L352.066 61.9197V57.9291L350.248 53.2291V52.2979L350.736 51.8102H351.224L351.756 52.3866L352.465 49.6375L352.066 47.5092V44.5828L354.638 43.3856C354.904 43.3856 355.081 43.4299 355.17 43.5186L356.633 41.1686H357.165L357.919 45.0705L357.742 50.48L357.964 50.1696H358.629V53.6725ZM359.338 74.1132L358.185 77.0396L355.392 78.2368L352.909 77.7934C352.85 77.3205 352.495 76.8623 351.845 76.4189V74.5566L353.175 71.2311V69.7235L353.663 69.1028H354.195L355.347 71.8962C355.584 71.8075 355.924 71.6154 356.367 71.3198C356.515 71.3493 356.752 71.4971 357.077 71.7632C357.402 72.0292 357.564 72.2214 357.564 72.3396C357.653 72.3396 357.742 72.2953 357.831 72.2066L359.338 72.9604C359.279 73.1082 359.249 73.2855 359.249 73.4924C359.249 73.6698 359.279 73.8767 359.338 74.1132Z" fill="black"/>
</svg>
