<svg width="504" height="156" viewBox="0 0 504 156" fill="none" xmlns="http://www.w3.org/2000/svg">
<rect x="52.4562" y="35.0924" width="450.051" height="119.415" rx="59.7077" fill="black" stroke="black" stroke-width="2.98462"/>
<rect x="14.4923" y="1.49231" width="475.361" height="119.415" rx="59.7077" fill="#EE3B6E" stroke="black" stroke-width="2.98462"/>
<path d="M96.2278 56.8206L95.474 61.1659L95.607 63.1169C95.4297 63.3238 95.341 63.6637 95.341 64.1367L94.7202 67.8169L94.8089 67.9056L95.075 67.5952L95.7401 67.7726L94.8976 75.9755L94.2325 77.483C94.0551 77.4535 93.7448 77.217 93.3014 76.7736L89.7542 76.951L87.9806 76.1972C87.8032 76.1972 87.6702 76.2415 87.5815 76.3302L86.0296 75.5764L85.5862 72.8717L84.7437 70.8764L84.2117 71.5858H83.2805L82.4824 70.0783L76.4078 61.964L72.5946 55.6234C72.4468 55.6234 72.2842 55.7121 72.1068 55.8895V56.9093L72.5502 58.8159L73.304 62.9395C73.304 63.0873 73.2006 63.2499 72.9936 63.4273V66.132L74.1021 65.2452L75.0776 65.5556L75.388 66.5754L73.8804 71.5415L74.5012 74.4679L73.7031 77.35C73.6735 77.35 73.5701 77.3944 73.3927 77.483C73.2449 77.5422 73.171 77.5422 73.171 77.483C72.8754 77.2466 72.4468 76.9657 71.8851 76.6406L70.2889 76.7736C70.0229 76.8032 69.8159 76.6554 69.6681 76.3302C69.6386 76.4484 69.3578 76.6554 68.8257 76.951L66.1653 77.084L65.8549 77.35L65.5445 77.217C65.3376 77.1579 65.175 77.1579 65.0568 77.217L64.6577 75.0887C64.6282 74.9409 64.6134 74.7635 64.6134 74.5566C64.6134 74.3792 64.6282 74.1575 64.6577 73.8915V67.1962L62.6624 59.5253C62.5737 59.4958 62.8546 59.481 63.5049 59.481L65.1011 61.831L65.3228 61.6093L64.6577 59.1263V57.0423L64.5247 54.9583V48.396L64.9238 48.529L64.4804 48.1743V47.2875L65.6332 43.5629L66.2983 43.0752L68.0719 44.9818L69.8012 44.5828C70.3332 44.1098 70.688 43.5482 70.8653 42.8978C70.954 42.5727 71.0279 41.8632 71.087 40.7695L71.9295 40.2818L72.5502 40.9025L73.8804 45.7356C74.7672 45.6765 75.6393 46.5337 76.4965 48.3073C78.0336 51.4702 78.9648 53.2734 79.2899 53.7168L79.6446 51.5441C79.8811 51.3372 80.1767 51.2338 80.5314 51.2338L82.5711 58.0178C83.3101 58.1656 83.9604 58.9637 84.522 60.4121C85.1132 61.9493 85.6158 62.8213 86.0296 63.0282V52.9187L86.606 50.613L86.0296 46.1347V40.0157H86.8721L88.0692 44.8931C88.3353 45.1592 88.4535 45.2922 88.424 45.2922L89.9759 43.7403C90.7149 43.0013 91.1287 42.2032 91.2174 41.3459L91.8825 41.1686C91.8825 41.5824 91.8973 41.8041 91.9268 41.8337C91.8973 41.8632 91.8825 41.9371 91.8825 42.0554C91.8825 42.4397 92.0598 42.8831 92.4146 43.3856C92.7693 43.8881 93.124 44.1837 93.4787 44.2724L94.0551 43.962L94.8533 44.3167V47.2432L94.1438 50.3913L94.0108 53.8055L94.3655 56.2442L94.7646 54.4706L95.4297 54.3376L96.2278 56.8206ZM142.047 47.4649L138.012 61.7423L138.411 62.1857V66.6641L136.682 70.1226L135.795 70.3886L134.598 73.4481V75.5321L133.091 76.5962L129.455 76.9953L127.903 76.1972L125.065 77.084C124.769 76.8771 124.356 76.2267 123.824 75.133L120.587 70.3443L120.675 69.8566C120.764 69.5905 120.927 69.3984 121.163 69.2801V68.8811L120.454 67.1075C120.542 66.8414 120.735 66.5311 121.03 66.1763L119.833 60.8999C119.626 60.2791 119.404 59.8505 119.168 59.614C118.843 60.0279 118.68 60.486 118.68 60.9886C118.68 61.2546 118.724 61.5206 118.813 61.7867L115.665 69.8122L114.645 69.3688V74.6453L114.379 76.1528L112.783 77.1283C112.103 77.5422 111.497 77.823 110.965 77.9708L109.236 77.5274L108.97 77.6604L106.753 76.6406L104.58 76.9953L103.782 77.35C103.545 76.9953 103.427 76.6849 103.427 76.4189V75.0887C103.427 74.3497 103.383 73.7141 103.294 73.1821L102.718 69.6349L97.5299 55.5347L98.062 55.047L98.7715 55.4904L98.9932 55.2687L97.0865 49.3715V47.8639L97.9733 44.1394L98.2837 44.0063V41.479L99.1262 41.0356L101.299 45.1592L101.654 44.1837V43.2969L102.274 40.1488C102.363 40.0305 102.526 39.8827 102.762 39.7054C102.88 39.7054 103.146 39.8088 103.56 40.0157L104.624 42.6761V43.2969L105.644 47.8639C105.644 48.2778 105.777 48.6029 106.043 48.8394H107.107L107.861 49.4602V53.8055L107.595 58.5942L108.305 62.7622L108.881 63.2056L109.502 65.5556C109.531 65.6443 109.59 65.6886 109.679 65.6886L110.921 62.4961V54.9583L111.32 54.4706C111.97 54.4706 112.561 54.914 113.093 55.8008L114.379 48.3073C114.468 48.2482 114.823 48.0856 115.443 47.8196C115.591 47.6127 115.724 47.2875 115.842 46.8441V43.5629L116.33 42.8092L117.173 42.8535L118.192 45.913C118.488 46.2086 118.71 46.3564 118.857 46.3564L120.188 42.0554C121.252 42.2623 121.976 43.1639 122.36 44.7601L122.626 47.2432L122.892 47.5092L123.336 47.2875C123.454 47.3466 123.646 47.3762 123.912 47.3762V49.3271L124.356 49.7262L125.021 47.3318L125.553 47.0658L126.351 49.6375L127.06 57.8848C127.297 57.8848 127.415 57.7813 127.415 57.5744C128.213 58.8159 128.686 59.7618 128.834 60.4121V64.5801L129.277 66.3094H129.499L131.539 59.3923L130.652 53.3177C130.711 53.1404 130.874 52.9335 131.14 52.697C131.406 52.6083 132.086 53.1552 133.179 54.3376V51.8545L134.465 48.3073V45.3809C134.288 45.2035 134.199 45.0409 134.199 44.8931C134.347 44.6567 134.613 44.4497 134.997 44.2724L135.308 44.5384L136.061 44.095L137.347 45.4252C138.116 44.5384 138.677 44.1541 139.032 44.2724L139.564 44.9818L140.584 42.8535L141.116 42.9422L142.047 44.6271V47.4649ZM159.555 52.1206L158.846 53.6725V54.9583L159.555 57.8404C159.674 58.3725 159.555 58.8307 159.201 59.215C158.846 59.5992 158.403 59.8357 157.87 59.9244L155.343 60.3678L153.702 59.7914C153.082 59.9096 152.505 59.4071 151.973 58.2838C151.559 57.397 151.338 56.5841 151.308 55.8451L152.195 53.1404L153.702 52.1206V49.7705C153.939 49.6523 154.235 49.4454 154.589 49.1498L155.432 49.7705L155.964 51.8102C156.023 51.7511 156.082 51.7511 156.141 51.8102C156.23 51.8989 156.304 51.9432 156.363 51.9432L157.56 48.5734L158.536 48.8837L159.555 52.1206ZM159.866 69.7679C159.866 70.5069 159.496 71.1424 158.757 71.6745C158.018 72.177 157.279 72.3987 156.54 72.3396L153.259 71.7188L151.574 69.9452V69.1471L153.259 65.999L153.436 66.132L153.658 65.866L153.525 64.8461L154.456 64.048H155.609L156.186 62.8065H157.471L157.959 63.9593V65.5999L159.866 68.5707V69.7679ZM211.066 67.5065L210.667 69.9452C210.046 71.1572 209.174 72.3987 208.051 73.6698C206.602 75.2956 205.287 76.2859 204.104 76.6406L201.666 77.35C201.311 77.3796 201.074 77.2909 200.956 77.084L200.247 77.5717H193.108L192.532 76.6406L190.181 77.6161H188.098L183.353 74.3792V69.0141L183.797 67.6396H185.526V65.4226L186.014 64.8018H186.812C187.462 65.6886 188.275 66.5015 189.25 67.2405L191.822 69.1915H194.571V67.3735L195.591 64.8018C195.857 64.8018 196.197 65.0087 196.611 65.4226C196.611 65.7773 196.566 65.999 196.478 66.0877L197.897 69.1028L199.404 68.5264V66.5311L197.675 63.915L196.256 63.4716L195.059 63.915L194.128 63.7376C193.98 63.442 193.817 63.1317 193.64 62.8065C193.492 62.4518 193.285 62.2301 193.019 62.1414C192.901 62.4074 192.665 62.6439 192.31 62.8508C191.985 63.0578 191.689 63.1169 191.423 63.0282L189.428 62.4518L188.94 62.5848V62.2301L184.949 58.7272L183.353 54.8253V46.7998C183.56 46.652 183.87 46.445 184.284 46.179L185.881 48.8394L189.117 44.5828L189.96 44.1394L190.714 39.528C191.068 39.528 191.349 39.6315 191.556 39.8384L193.773 43.1195H194.615L195.325 42.8092L196.655 39.7054L197.764 39.9714L199.537 43.1195H202.331L206.011 44.8488C206.07 44.8784 206.321 45.0853 206.765 45.4696H207.119L207.873 43.2526L208.627 42.6318C209.159 42.8092 209.484 43.4299 209.602 44.4941L209.824 46.7111V52.963H206.72L203.173 51.0564H201.843L194.926 49.5932L194.394 49.8592C193.95 49.741 193.596 49.9775 193.33 50.5687C193.123 51.0416 193.034 51.5146 193.064 51.9875L194.926 54.6036L196.522 51.3668L197.32 51.5441L198.34 55.4904L199.36 55.1357C199.685 55.52 200.069 56.0373 200.513 56.6876L200.823 56.3772L201 56.5546H201.666L202.907 54.2932L204.814 57.7074L204.947 57.5744L206.454 58.7272H207.031C207.09 58.7863 207.193 58.9489 207.341 59.215C207.489 59.2445 207.622 59.2593 207.74 59.2593C207.829 59.2593 207.917 59.2445 208.006 59.215L208.317 55.0913H208.627L209.115 54.781C209.115 55.0766 209.351 55.2244 209.824 55.2244V55.8451L210.933 63.2499L210.223 67.0631C210.401 67.1518 210.681 67.2996 211.066 67.5065ZM246.325 64.1367L245.749 68.2603C245.749 68.3786 245.808 68.482 245.926 68.5707C246.103 68.7481 246.236 68.8959 246.325 69.0141V69.9009C245.172 72.2657 243.354 74.5714 240.871 76.8179C238.625 78.8576 236.777 80.0695 235.329 80.4538L233.998 80.1434L232.846 81.3406H231.249L229.786 81.784L227.924 81.3406H226.727L225.707 80.8972L224.82 81.0746L223.49 80.1434L221.982 79.8331L214.666 72.2953V70.9651C213.602 69.3393 213.07 67.8465 213.07 66.4867C213.07 66.3389 213.085 66.1024 213.114 65.7773V65.0235C213.114 64.6983 213.085 64.2549 213.026 63.6933C212.966 63.0134 212.937 62.57 212.937 62.3631L212.494 52.7413L212.848 52.2536L213.513 52.3866L214.799 55.047L217.371 50.0809C217.371 49.9331 217.282 49.8592 217.105 49.8592V49.1941L217.415 48.8394H217.903L219.056 49.8592L220.031 46.2233C220.504 45.9869 220.8 45.8686 220.918 45.8686L222.337 46.6224C222.396 46.652 222.44 46.6667 222.47 46.6667C222.529 46.6372 222.559 46.5781 222.559 46.4894V39.7054C222.647 39.6462 222.721 39.6167 222.78 39.6167C222.84 39.6167 222.884 39.6315 222.913 39.661C223.002 39.5723 223.268 39.6315 223.712 39.8384L225.618 44.6271V45.6913H228.101L229.254 46.179L230.274 45.913L231.116 43.4299V42.8092L231.959 42.6318C232.727 43.6073 233.112 44.4497 233.112 45.1592C233.112 45.307 233.082 45.4252 233.023 45.5139L234.442 47.1988C234.678 47.051 234.9 47.0067 235.107 47.0658C235.314 47.1249 235.491 47.1693 235.639 47.1988H236.393L238.743 47.6866L239.763 48.8394L239.984 47.8639V46.2677L240.162 45.3365L240.827 45.1592L244.241 54.3376C244.33 54.4558 244.463 54.5888 244.64 54.7366C244.817 54.5593 244.936 54.4706 244.995 54.4706L246.325 57.4857V64.1367ZM236.659 67.9943V59.0376L236.171 59.1706L235.55 58.7716L233.91 55.0913L229.387 51.6328L228.323 54.0272H227.791L226.283 53.1404L224.687 55.3574L224.51 55.18L223.135 57.9291L222.692 60.8999L223.135 64.4471V65.6443L223.49 66.7084L224.421 65.8216H224.776L225.973 70.832C226.062 70.832 226.18 70.8912 226.328 71.0094C226.416 70.9207 226.579 70.5069 226.815 69.7679L227.214 65.6886C227.303 65.7773 227.48 65.8216 227.746 65.8216L229.032 69.4575L229.52 72.783L231.028 72.0292L231.604 72.2509H232.358L233.599 72.4726L236.659 67.9943ZM273.189 76.1085L270.174 76.4632L268.755 76.8623C268.519 76.7736 268.12 76.6406 267.558 76.4632L266.538 76.6406C266.065 76.6406 265.607 76.4928 265.164 76.1972L262.681 76.8623L259.134 77.1727L257.626 77.6604L256.606 76.4632L256.252 76.7736C256.311 76.9214 256.252 77.0249 256.074 77.084L255.542 77.2613C255.365 77.3205 255.232 77.35 255.143 77.35H254.522L252.172 75.5764C251.729 75.7538 251.448 75.9607 251.33 76.1972L249.556 75.7094V71.5415L248.581 68.5707C248.669 68.3638 248.98 68.1569 249.512 67.9499V60.5895L247.251 53.8055L247.871 51.9432H248.403L249.689 53.7168C249.571 53.7168 249.527 53.6133 249.556 53.4064V42.3658L250.753 42.0554L252.217 44.7158H252.749L254.434 43.6516C254.493 43.6812 254.67 43.696 254.966 43.696L256.119 40.1488L256.961 39.9714L258.069 43.2969L257.936 56.5102C258.084 56.1851 258.232 55.9929 258.38 55.9338C258.587 55.9929 258.853 56.2146 259.178 56.5989C259.503 56.9536 259.666 57.2344 259.666 57.4414L257.936 61.7867V62.4961L258.158 64.8905C258.158 65.3043 258.276 65.5704 258.513 65.6886L259.267 64.9348L260.065 65.1122L261.129 68.216L262.725 69.1028L263.701 70.2556L265.031 68.216H265.652L266.583 69.2801C266.701 69.4279 266.923 69.5018 267.248 69.5018C267.425 69.5018 267.676 69.4575 268.002 69.3688C268.356 69.2801 268.608 69.2358 268.755 69.2358C269.051 69.2358 269.302 69.3393 269.509 69.5462C269.657 69.5462 269.731 69.4427 269.731 69.2358H270.396L271.105 69.8122L272.125 69.5462L273.189 69.9896V76.1085ZM305.673 75.5764C305.466 75.6651 305.155 75.8129 304.741 76.0198L300.973 75.9311L299.421 75.4434L297.514 75.9311H296.406L295.785 74.5123V72.6056L295.563 72.3396L295.386 72.4726L294.189 68.1716L293.79 67.6839H291.085L290.553 66.7084L289.4 68.482C288.868 68.2455 288.543 67.9943 288.424 67.7282L286.917 67.4622L284.478 68.0386L283.769 67.9056L282.793 71.4085V73.6255L281.729 75.9311H277.738L275.034 75.4434L274.901 75.5764L274.147 75.3104L273.393 75.5764L272.728 75.266L273.482 71.3641L275.122 66.7971L275.743 59.9244H276.098L277.384 62.7178L279.689 57.1753V56.2885L281.374 51.8545V45.0705L282.217 43.0752H282.616L284.212 46.312L285.764 44.5828L287.892 43.5186L288.779 43.829L289.001 43.5629V42.4544C289.001 41.5972 289.37 40.873 290.109 40.2818L291.617 44.4054L292.193 44.2724L293.701 44.8931L294.322 47.1101L295.031 48.13L296.007 52.3866L297.337 49.7262L298.179 51.8545L298.623 56.1555L299.775 60.8555C299.805 60.9442 299.864 60.9886 299.953 60.9886L300.707 59.348L301.372 59.215L301.992 61.2989L302.436 64.1367V65.4226C302.613 65.5999 302.731 65.6886 302.791 65.6886C302.909 65.4817 302.968 65.2895 302.968 65.1122C302.968 65.0235 302.938 64.9348 302.879 64.8461L303.544 64.3584C303.692 64.4766 303.825 64.5358 303.943 64.5358V67.2405L304.963 69.9009L305.673 75.5764ZM291.218 61.6537L290.021 58.5055L290.198 57.7517L287.892 54.2932L287.094 56.3772C287.183 56.3772 287.434 56.4215 287.848 56.5102C287.848 56.5398 287.863 56.6285 287.892 56.7763C287.951 56.9241 287.981 57.0275 287.981 57.0866L285.897 62.0527H290.287C290.641 61.7867 290.952 61.6537 291.218 61.6537ZM338.885 56.8206L338.132 61.1659L338.265 63.1169C338.087 63.3238 337.999 63.6637 337.999 64.1367L337.378 67.8169L337.466 67.9056L337.733 67.5952L338.398 67.7726L337.555 75.9755L336.89 77.483C336.713 77.4535 336.402 77.217 335.959 76.7736L332.412 76.951L330.638 76.1972C330.461 76.1972 330.328 76.2415 330.239 76.3302L328.687 75.5764L328.244 72.8717L327.401 70.8764L326.869 71.5858H325.938L325.14 70.0783L319.065 61.964L315.252 55.6234C315.104 55.6234 314.942 55.7121 314.764 55.8895V56.9093L315.208 58.8159L315.962 62.9395C315.962 63.0873 315.858 63.2499 315.651 63.4273V66.132L316.76 65.2452L317.735 65.5556L318.046 66.5754L316.538 71.5415L317.159 74.4679L316.361 77.35C316.331 77.35 316.228 77.3944 316.05 77.483C315.902 77.5422 315.829 77.5422 315.829 77.483C315.533 77.2466 315.104 76.9657 314.543 76.6406L312.946 76.7736C312.68 76.8032 312.474 76.6554 312.326 76.3302C312.296 76.4484 312.015 76.6554 311.483 76.951L308.823 77.084L308.512 77.35L308.202 77.217C307.995 77.1579 307.833 77.1579 307.714 77.217L307.315 75.0887C307.286 74.9409 307.271 74.7635 307.271 74.5566C307.271 74.3792 307.286 74.1575 307.315 73.8915V67.1962L305.32 59.5253C305.231 59.4958 305.512 59.481 306.162 59.481L307.759 61.831L307.98 61.6093L307.315 59.1263V57.0423L307.182 54.9583V48.396L307.581 48.529L307.138 48.1743V47.2875L308.291 43.5629L308.956 43.0752L310.729 44.9818L312.459 44.5828C312.991 44.1098 313.346 43.5482 313.523 42.8978C313.612 42.5727 313.685 41.8632 313.745 40.7695L314.587 40.2818L315.208 40.9025L316.538 45.7356C317.425 45.6765 318.297 46.5337 319.154 48.3073C320.691 51.4702 321.622 53.2734 321.947 53.7168L322.302 51.5441C322.539 51.3372 322.834 51.2338 323.189 51.2338L325.229 58.0178C325.968 58.1656 326.618 58.9637 327.18 60.4121C327.771 61.9493 328.273 62.8213 328.687 63.0282V52.9187L329.264 50.613L328.687 46.1347V40.0157H329.53L330.727 44.8931C330.993 45.1592 331.111 45.2922 331.082 45.2922L332.633 43.7403C333.372 43.0013 333.786 42.2032 333.875 41.3459L334.54 41.1686C334.54 41.5824 334.555 41.8041 334.584 41.8337C334.555 41.8632 334.54 41.9371 334.54 42.0554C334.54 42.4397 334.717 42.8831 335.072 43.3856C335.427 43.8881 335.782 44.1837 336.136 44.2724L336.713 43.962L337.511 44.3167V47.2432L336.801 50.3913L336.668 53.8055L337.023 56.2442L337.422 54.4706L338.087 54.3376L338.885 56.8206ZM373.265 75.5764C373.058 75.6651 372.748 75.8129 372.334 76.0198L368.565 75.9311L367.013 75.4434L365.107 75.9311H363.998L363.377 74.5123V72.6056L363.156 72.3396L362.978 72.4726L361.781 68.1716L361.382 67.6839H358.677L358.145 66.7084L356.992 68.482C356.46 68.2455 356.135 67.9943 356.017 67.7282L354.509 67.4622L352.071 68.0386L351.361 67.9056L350.386 71.4085V73.6255L349.322 75.9311H345.331L342.626 75.4434L342.493 75.5764L341.739 75.3104L340.986 75.5764L340.321 75.266L341.074 71.3641L342.715 66.7971L343.336 59.9244H343.69L344.976 62.7178L347.282 57.1753V56.2885L348.967 51.8545V45.0705L349.809 43.0752H350.208L351.805 46.312L353.357 44.5828L355.485 43.5186L356.372 43.829L356.593 43.5629V42.4544C356.593 41.5972 356.963 40.873 357.702 40.2818L359.209 44.4054L359.786 44.2724L361.293 44.8931L361.914 47.1101L362.624 48.13L363.599 52.3866L364.929 49.7262L365.772 51.8545L366.215 56.1555L367.368 60.8555C367.398 60.9442 367.457 60.9886 367.545 60.9886L368.299 59.348L368.964 59.215L369.585 61.2989L370.028 64.1367V65.4226C370.206 65.5999 370.324 65.6886 370.383 65.6886C370.501 65.4817 370.56 65.2895 370.56 65.1122C370.56 65.0235 370.531 64.9348 370.472 64.8461L371.137 64.3584C371.285 64.4766 371.418 64.5358 371.536 64.5358V67.2405L372.556 69.9009L373.265 75.5764ZM358.81 61.6537L357.613 58.5055L357.791 57.7517L355.485 54.2932L354.687 56.3772C354.775 56.3772 355.027 56.4215 355.44 56.5102C355.44 56.5398 355.455 56.6285 355.485 56.7763C355.544 56.9241 355.574 57.0275 355.574 57.0866L353.49 62.0527H357.879C358.234 61.7867 358.544 61.6537 358.81 61.6537Z" fill="black"/>
</svg>
