<svg width="994" height="156" viewBox="0 0 994 156" fill="none" xmlns="http://www.w3.org/2000/svg">
<rect x="78.348" y="35.0924" width="914.16" height="119.415" rx="59.7077" fill="black" stroke="black" stroke-width="2.98462"/>
<rect x="1.49231" y="1.49231" width="965.397" height="119.415" rx="59.7077" fill="#EE3B6E" stroke="black" stroke-width="2.98462"/>
<path d="M100.634 49.8592L100.501 50.879L98.6383 51.8102L97.6628 51.4998L92.475 52.2536L91.7656 52.5196V56.4215C92.2977 56.392 92.8593 55.7417 93.4505 54.4706L94.1156 54.781V56.9093L92.3864 61.2103V68.4377L92.475 70.0339V76.9066L91.1005 77.35L90.3911 77.217L89.5043 77.4387L86.5335 77.5274L85.9127 77.6604L84.6269 77.217L83.8731 77.5274C83.5479 77.3205 83.2375 77.217 82.9419 77.217L82.6316 76.5962C82.6316 76.2415 82.7794 75.9311 83.075 75.6651L81.3014 65.9546L80.1042 63.2499L80.4146 62.4518H80.9466L82.3655 63.649V52.963L81.6561 52.697H80.4589C80.3407 52.5196 79.8973 52.4162 79.1287 52.3866L76.8674 51.8102L74.739 52.2536L73.1871 52.3866L73.5862 49.4158L73.0098 46.7111L73.7636 43.0752H74.2956L76.0692 45.4252L81.3457 45.2922C81.9665 45.2035 82.3064 44.9375 82.3655 44.4941V41.1686L83.607 40.7252C83.814 40.9321 83.9618 41.0356 84.0504 41.0356L84.8042 44.8931C84.8929 44.9523 85.1737 45.0853 85.6467 45.2922L86.4891 44.5828C86.7847 44.5828 87.0064 44.7158 87.1542 44.9818C87.1838 45.0409 87.2134 45.0705 87.2429 45.0705C87.302 45.0409 87.3316 44.967 87.3316 44.8488V42.8535L88.5731 39.7054C88.7209 39.7054 88.8983 39.8088 89.1052 40.0157L88.9722 40.6365L90.4354 44.4497L91.9873 45.4252C92.1351 45.2774 92.2386 45.2035 92.2977 45.2035C92.3272 45.2035 92.342 45.2331 92.342 45.2922H94.6477L97.4411 45.1592L97.9732 43.7403V42.4101L98.727 41.0356C98.8157 40.9764 98.9339 40.9469 99.0817 40.9469C99.2591 40.9469 99.4808 41.0208 99.7468 41.1686L100.057 42.5431V47.8639L100.634 49.8592ZM134.06 75.5764C133.853 75.6651 133.542 75.8129 133.129 76.0198L129.36 75.9311L127.808 75.4434L125.901 75.9311H124.793L124.172 74.5123V72.6056L123.95 72.3396L123.773 72.4726L122.576 68.1716L122.177 67.6839H119.472L118.94 66.7084L117.787 68.482C117.255 68.2455 116.93 67.9943 116.811 67.7282L115.304 67.4622L112.865 68.0386L112.156 67.9056L111.18 71.4085V73.6255L110.116 75.9311H106.126L103.421 75.4434L103.288 75.5764L102.534 75.3104L101.78 75.5764L101.115 75.266L101.869 71.3641L103.509 66.7971L104.13 59.9244H104.485L105.771 62.7178L108.076 57.1753V56.2885L109.761 51.8545V45.0705L110.604 43.0752H111.003L112.599 46.312L114.151 44.5828L116.279 43.5186L117.166 43.829L117.388 43.5629V42.4544C117.388 41.5972 117.757 40.873 118.496 40.2818L120.004 44.4054L120.58 44.2724L122.088 44.8931L122.709 47.1101L123.418 48.13L124.394 52.3866L125.724 49.7262L126.566 51.8545L127.01 56.1555L128.163 60.8555C128.192 60.9442 128.251 60.9886 128.34 60.9886L129.094 59.348L129.759 59.215L130.38 61.2989L130.823 64.1367V65.4226C131 65.5999 131.119 65.6886 131.178 65.6886C131.296 65.4817 131.355 65.2895 131.355 65.1122C131.355 65.0235 131.325 64.9348 131.266 64.8461L131.931 64.3584C132.079 64.4766 132.212 64.5358 132.33 64.5358V67.2405L133.35 69.9009L134.06 75.5764ZM119.605 61.6537L118.408 58.5055L118.585 57.7517L116.279 54.2932L115.481 56.3772C115.57 56.3772 115.821 56.4215 116.235 56.5102C116.235 56.5398 116.25 56.6285 116.279 56.7763C116.339 56.9241 116.368 57.0275 116.368 57.0866L114.284 62.0527H118.674C119.028 61.7867 119.339 61.6537 119.605 61.6537ZM165.322 75.5321L164.612 75.8868L164.213 75.5764C164.124 75.5764 163.977 75.6799 163.77 75.8868C163.77 75.7981 163.725 75.6947 163.637 75.5764L162.883 75.8868L162.705 75.7538L159.602 76.3302L159.469 76.1972L156.808 77.084L156.099 76.6406C155.981 76.7293 155.862 76.7736 155.744 76.7736L151.886 69.0141V68.5264L152.463 67.5509L152.241 66.8858L151.088 68.6594L150.157 68.349L148.561 65.999C148.236 66.3241 147.822 67.1814 147.319 68.5707C146.758 70.0487 146.329 70.9946 146.034 71.4085C144.94 72.5022 143.536 74.0836 141.821 76.1528L139.516 76.7736C139.516 76.5667 139.279 76.4632 138.806 76.4632L137.609 76.1972H136.279L134.15 75.3991V74.9113L137.698 66.6197L138.052 66.3094H138.54C138.658 66.605 138.88 66.9892 139.205 67.4622L140.358 62.0527L140.225 59.2593C140.314 58.5794 140.535 58.2099 140.89 58.1508L142.93 60.0574C143.107 59.4958 143.329 59.0819 143.595 58.8159L135.791 48.6177L136.146 48.0856L137.432 48.8394L137.565 48.3517L135.17 45.1148C135.17 44.5828 135.333 44.1541 135.658 43.829L140.402 43.696L141.422 43.2526V40.4591L141.733 40.1044H142.176C142.442 40.1044 143.565 42.0554 145.546 45.9573C147.408 49.6523 148.561 52.1353 149.004 53.4064C149.064 53.436 149.182 53.1108 149.359 52.4309L150.734 47.2432H151.133L152.729 49.4158C152.906 49.3271 153.128 48.9429 153.394 48.263C153.66 47.5831 153.793 47.1101 153.793 46.8441V41.0356L154.636 40.5922L155.434 42.0554L156.764 43.4299L156.897 44.1394L157.562 44.4054C157.858 44.2576 158.301 44.0063 158.892 43.6516L160.089 44.095C160.178 44.095 160.326 44.0063 160.533 43.829C160.71 43.8585 161.006 44.0507 161.42 44.4054H161.996L163.282 43.696L164.036 43.2526V44.9375L158.36 55.4017H156.365C156.276 55.3722 156.158 55.4313 156.01 55.5791L157.518 56.5989L156.187 58.9933V59.5253L158.759 64.3584C159.41 63.7081 159.735 62.8952 159.735 61.9197V61.1659L159.912 60.3678C159.942 60.3678 160.045 60.3235 160.222 60.2348C160.429 60.1461 160.592 60.1018 160.71 60.1018L161.641 62.8065V65.5999L162.838 68.7037V69.5905L165.322 74.6009V75.5321ZM189.705 74.2019L188.862 77.084C188.655 76.9362 188.345 76.8771 187.931 76.9066C187.754 76.4041 187.458 76.0198 187.044 75.7538L184.96 76.6406C184.546 76.7588 184.192 76.8179 183.896 76.8179C183.63 76.8179 183.408 76.7588 183.231 76.6406L181.457 76.9066L179.684 76.7736C179.477 76.7736 179.285 76.8771 179.107 77.084L178.753 76.7736L176.89 76.6406C176.536 76.611 176.181 76.4041 175.826 76.0198L173.831 75.8868L170.372 76.6406L168.821 76.0198C168.495 76.0198 168.333 76.1233 168.333 76.3302L168.111 75.9311H166.648L165.85 74.6453L166.648 68.0386V61.9197L165.584 56.9093V54.6479L165.938 54.1602L166.426 54.6036H166.87L166.958 54.7366V41.0356L167.579 40.5922L169.087 44.2724H170.905L172.678 39.9714H173.521L174.984 44.9818C175.22 44.7749 175.472 44.701 175.738 44.7601C176.388 44.8192 176.772 44.8488 176.89 44.8488L178.797 45.2035L181.59 45.1592C182.152 45.0409 182.566 44.4793 182.832 43.4743C182.98 42.9717 183.142 42.2032 183.32 41.1686L183.985 40.7252L187.222 44.2724L188.419 43.0752C188.508 43.1934 188.714 43.2526 189.04 43.2526L189.439 43.3856C189.616 43.4743 189.705 43.5925 189.705 43.7403V49.6819L188.729 50.9234L185.404 51.1007L184.251 50.1696L182.256 50.9234L182.034 50.746L180.26 51.1007H178.886L177.866 51.3668C177.895 51.3077 177.91 51.2633 177.91 51.2338C177.91 51.1451 177.836 51.1007 177.689 51.1007H176.181L175.605 54.2045L176.048 54.5593L177.289 54.9583L178.62 53.2734L179.418 53.0517L179.906 55.2244L181.812 56.2442C182.049 56.0077 182.374 55.8895 182.788 55.8895C183.231 55.8895 183.586 56.0077 183.852 56.2442C184.827 56.1851 185.463 55.7417 185.758 54.914C186.172 53.8203 186.497 53.1995 186.734 53.0517L187.266 52.83L187.709 55.1357V60.4565L187.089 61.698L186.335 61.565L185.758 61.831L182.655 61.3876L180.482 61.831H175.605V66.7971L176.048 69.1028L176.447 69.3688L178.043 69.0584L179.506 68.7924L180.526 66.5754H181.191L182.788 69.9009C182.906 69.8418 183.142 69.8122 183.497 69.8122C183.881 69.8122 184.384 69.8418 185.005 69.9009L188.241 68.7481L189.483 68.482L189.705 70.3443V74.2019ZM218.631 67.5065L218.232 69.9452C217.612 71.1572 216.74 72.3987 215.616 73.6698C214.168 75.2956 212.852 76.2859 211.67 76.6406L209.231 77.35C208.877 77.3796 208.64 77.2909 208.522 77.084L207.812 77.5717H200.674L200.097 76.6406L197.747 77.6161H195.663L190.919 74.3792V69.0141L191.362 67.6396H193.092V65.4226L193.579 64.8018H194.377C195.028 65.6886 195.841 66.5015 196.816 67.2405L199.388 69.1915H202.137V67.3735L203.157 64.8018C203.423 64.8018 203.763 65.0087 204.177 65.4226C204.177 65.7773 204.132 65.999 204.043 66.0877L205.462 69.1028L206.97 68.5264V66.5311L205.241 63.915L203.822 63.4716L202.625 63.915L201.693 63.7376C201.546 63.442 201.383 63.1317 201.206 62.8065C201.058 62.4518 200.851 62.2301 200.585 62.1414C200.467 62.4074 200.23 62.6439 199.876 62.8508C199.55 63.0578 199.255 63.1169 198.989 63.0282L196.993 62.4518L196.506 62.5848V62.2301L192.515 58.7272L190.919 54.8253V46.7998C191.126 46.652 191.436 46.445 191.85 46.179L193.446 48.8394L196.683 44.5828L197.526 44.1394L198.279 39.528C198.634 39.528 198.915 39.6315 199.122 39.8384L201.339 43.1195H202.181L202.891 42.8092L204.221 39.7054L205.329 39.9714L207.103 43.1195H209.896L213.577 44.8488C213.636 44.8784 213.887 45.0853 214.33 45.4696H214.685L215.439 43.2526L216.193 42.6318C216.725 42.8092 217.05 43.4299 217.168 44.4941L217.39 46.7111V52.963H214.286L210.739 51.0564H209.409L202.492 49.5932L201.96 49.8592C201.516 49.741 201.161 49.9775 200.895 50.5687C200.688 51.0416 200.6 51.5146 200.629 51.9875L202.492 54.6036L204.088 51.3668L204.886 51.5441L205.906 55.4904L206.926 55.1357C207.251 55.52 207.635 56.0373 208.078 56.6876L208.389 56.3772L208.566 56.5546H209.231L210.473 54.2932L212.379 57.7074L212.512 57.5744L214.02 58.7272H214.596C214.656 58.7863 214.759 58.9489 214.907 59.215C215.055 59.2445 215.188 59.2593 215.306 59.2593C215.395 59.2593 215.483 59.2445 215.572 59.215L215.882 55.0913H216.193L216.68 54.781C216.68 55.0766 216.917 55.2244 217.39 55.2244V55.8451L218.498 63.2499L217.789 67.0631C217.966 67.1518 218.247 67.2996 218.631 67.5065ZM268.656 58.8602L268.39 59.1706L267.813 64.7131L268.079 66.4867L267.37 70.2113C267.015 72.1622 265.567 74.6896 263.025 77.7934L257.216 81.651L256.196 81.2076L255.487 81.651H254.866L253.891 81.2076L252.915 81.3406L249.545 78.9906C249.338 78.9906 249.028 79.0349 248.614 79.1236C248.614 78.9167 248.422 78.8132 248.038 78.8132L247.151 77.084L246.752 77.5274H245.998C245.259 77.5274 244.653 76.8918 244.18 75.6208C243.796 74.5566 243.633 73.7585 243.692 73.2264L243.116 68.5707L242.54 66.0433L243.249 55.8451L242.673 48.6177L243.027 48.0856C243.086 48.1743 243.16 48.2186 243.249 48.2186C243.338 48.2186 243.426 48.1743 243.515 48.0856L245.289 50.746L251.94 44.7601V42.9865L252.605 41.479H253.447L254.6 43.962H255.576C255.812 43.962 256.226 44.0655 256.817 44.2724L257.97 44.8488L259.699 44.9375L260.143 44.4497L260.719 41.745C260.837 41.745 261 41.6563 261.207 41.479H261.872L262.759 44.1837C262.67 44.6271 262.655 44.9079 262.714 45.0262L263.335 44.8488L266.838 52.3866C266.897 52.1501 266.927 51.958 266.927 51.8102C266.927 51.5737 266.867 51.3963 266.749 51.2781L267.237 50.48L268.212 50.6573L268.523 51.5885V53.4951L268.656 58.8602ZM260.187 67.6839V64.7131L258.945 61.1659V60.6338L260.187 59.8801V57.4857L258.325 53.1404L256.063 51.9432C255.768 51.9136 255.428 51.7658 255.043 51.4998L251.275 53.4508L250.476 56.7319V58.5942C250.476 58.476 250.55 58.2986 250.698 58.0621L250.92 57.7074L251.585 57.5744L252.25 59.1263V59.7027L250.432 63.3829V70.6547L252.161 72.6056H252.383V70.3886L253.492 69.9896L255.132 72.916C255.989 72.5022 256.891 71.911 257.837 71.1424C259.404 69.8713 260.187 68.7185 260.187 67.6839ZM280.094 51.2781L278.276 55.3574L277.655 55.18L277.211 55.4904L276.591 55.1357H276.147L273.753 54.6923L272.334 53.4064C271.891 52.8448 271.669 52.1353 271.669 51.2781C271.669 50.1548 272.127 49.2089 273.043 48.4403C273.782 47.9969 274.521 47.5388 275.26 47.0658L275.571 47.3762L276.28 45.913H278.098C278.335 46.2086 278.423 46.6076 278.364 47.1101C278.276 47.7605 278.246 48.1447 278.276 48.263H279.428C279.872 48.6768 280.094 48.9872 280.094 49.1941V51.2781ZM290.114 45.7356L289.538 48.7951C289.538 48.9724 289.582 49.1054 289.671 49.1941L287.498 55.8895V56.4659L286.833 60.2348L285.946 59.7914L285.104 64.181L283.463 68.3047V69.3245L282.133 74.5123V75.9755L281.823 77.7934C281.439 78.0003 281.069 78.222 280.714 78.4585C280.33 78.7837 280.138 79.2714 280.138 79.9217V81.1633L278.231 82.2274H277.477L275.349 80.2765L276.103 74.7783V69.4132H277.078L278.098 70.566L279.65 67.8169L279.872 66.7971V60.4121L282 56.7319V51.1007L282.843 50.9234L283.685 51.9432L284.217 50.3913V46.2233L285.547 45.6026L285.991 41.9667L286.612 40.1488L287.454 40.2818V44.9818L288.829 42.8092H289.671L290.114 45.7356ZM292.996 70.566L291.888 73.4924L289.095 74.6896L286.612 74.2462C286.552 73.7733 286.198 73.3151 285.547 72.8717V71.0094L286.878 67.6839V66.1763L287.365 65.5556H287.897L289.05 68.349C289.287 68.2603 289.612 68.0682 290.026 67.7726C290.173 67.8021 290.41 67.9499 290.735 68.216C291.06 68.482 291.238 68.6742 291.267 68.7924C291.356 68.7924 291.445 68.7481 291.533 68.6594L292.996 69.4132C292.967 69.561 292.952 69.7383 292.952 69.9452C292.952 70.1226 292.967 70.3295 292.996 70.566ZM346.219 57.6187L345.332 59.8801V64.5801C345.125 64.9939 344.903 65.26 344.667 65.3782L342.272 64.048L340.233 64.9348L337.572 64.5801L334.336 64.4914L332.562 64.9348L329.236 64.4914H327.064L322.364 64.2254L321.787 64.6688C321.699 64.6688 321.566 64.6983 321.388 64.7575C321.211 64.787 321.078 64.8018 320.989 64.8018C320.871 64.6836 320.708 64.6244 320.501 64.6244L321.078 61.9197V60.0131L320.501 58.1508L320.989 56.1112C321.285 56.1112 321.492 56.052 321.61 55.9338L323.428 58.4612C323.457 58.4612 323.679 58.3725 324.093 58.1951C324.507 57.9882 324.773 57.87 324.891 57.8404L325.468 58.4612L326.931 57.9734L327.818 58.1508L329.591 58.5942L329.813 58.3282V55.6678C330.049 55.4608 330.286 55.3574 330.522 55.3574C330.729 55.5643 330.833 55.8156 330.833 56.1112L332.739 58.0178L333.715 57.8404C334.069 57.8404 334.469 57.9882 334.912 58.2838C335.001 58.1951 335.148 58.0917 335.355 57.9734H335.799C336.183 57.9734 336.434 58.0769 336.553 58.2838L338.237 57.5744L338.903 55.8008L341.563 57.9734L343.603 57.7074L345.554 57.131C345.82 57.131 346.041 57.2936 346.219 57.6187ZM397.507 67.5065L397.108 69.9452C396.487 71.1572 395.615 72.3987 394.492 73.6698C393.043 75.2956 391.728 76.2859 390.546 76.6406L388.107 77.35C387.752 77.3796 387.516 77.2909 387.397 77.084L386.688 77.5717H379.549L378.973 76.6406L376.623 77.6161H374.539L369.794 74.3792V69.0141L370.238 67.6396H371.967V65.4226L372.455 64.8018H373.253C373.903 65.6886 374.716 66.5015 375.692 67.2405L378.263 69.1915H381.012V67.3735L382.032 64.8018C382.298 64.8018 382.638 65.0087 383.052 65.4226C383.052 65.7773 383.008 65.999 382.919 66.0877L384.338 69.1028L385.845 68.5264V66.5311L384.116 63.915L382.697 63.4716L381.5 63.915L380.569 63.7376C380.421 63.442 380.259 63.1317 380.081 62.8065C379.933 62.4518 379.727 62.2301 379.461 62.1414C379.342 62.4074 379.106 62.6439 378.751 62.8508C378.426 63.0578 378.13 63.1169 377.864 63.0282L375.869 62.4518L375.381 62.5848V62.2301L371.391 58.7272L369.794 54.8253V46.7998C370.001 46.652 370.312 46.445 370.726 46.179L372.322 48.8394L375.559 44.5828L376.401 44.1394L377.155 39.528C377.51 39.528 377.79 39.6315 377.997 39.8384L380.214 43.1195H381.057L381.766 42.8092L383.096 39.7054L384.205 39.9714L385.978 43.1195H388.772L392.452 44.8488C392.511 44.8784 392.763 45.0853 393.206 45.4696H393.561L394.314 43.2526L395.068 42.6318C395.6 42.8092 395.925 43.4299 396.044 44.4941L396.265 46.7111V52.963H393.162L389.614 51.0564H388.284L381.367 49.5932L380.835 49.8592C380.392 49.741 380.037 49.9775 379.771 50.5687C379.564 51.0416 379.475 51.5146 379.505 51.9875L381.367 54.6036L382.963 51.3668L383.761 51.5441L384.781 55.4904L385.801 55.1357C386.126 55.52 386.511 56.0373 386.954 56.6876L387.264 56.3772L387.442 56.5546H388.107L389.348 54.2932L391.255 57.7074L391.388 57.5744L392.896 58.7272H393.472C393.531 58.7863 393.635 58.9489 393.782 59.215C393.93 59.2445 394.063 59.2593 394.181 59.2593C394.27 59.2593 394.359 59.2445 394.447 59.215L394.758 55.0913H395.068L395.556 54.781C395.556 55.0766 395.792 55.2244 396.265 55.2244V55.8451L397.374 63.2499L396.664 67.0631C396.842 67.1518 397.123 67.2996 397.507 67.5065ZM428.51 60.5895L427.179 67.2405L426.381 72.65L426.204 72.4726L425.627 73.2264L425.45 73.0934L419.908 77.9264L416.582 79.3453C416.464 79.1088 416.257 78.9906 415.961 78.9906C415.754 78.9906 415.459 79.0497 415.075 79.168C414.69 79.2862 414.409 79.3453 414.232 79.3453L412.591 78.8576H410.951L406.162 76.9066C406.103 76.9066 405.985 76.9657 405.807 77.084L402.482 74.0689C402.482 73.9802 402.526 73.8767 402.615 73.7585C401.876 73.049 401.226 72.1918 400.664 71.1868C400.014 70.0339 399.689 69.0141 399.689 68.1273V66.3537L398.092 59.8801V56.8206L399.289 58.1508L399.511 57.8848L399.378 51.0121L398.935 47.5535L399.289 46.9328L400.176 47.3762L401.506 44.6271V41.5233L402.216 40.2818H402.748L404.078 45.0262H404.921C405.039 45.0262 405.113 44.9966 405.142 44.9375C405.172 44.8784 405.231 44.8488 405.32 44.8488L406.384 43.962H406.872L407.803 47.1545L407.182 49.6819V54.4706L408.424 51.6772H409.266V53.4951L407.492 65.1565L408.512 68.9698L410.064 69.6792L411.084 67.1962L411.926 67.3292L412.946 69.8566C413.685 69.8566 414.069 69.8418 414.099 69.8122L414.409 70.1226C414.942 70.0339 415.799 69.7679 416.981 69.3245C417.543 68.9993 417.927 68.6446 418.134 68.2603L417.691 63.6933V55.8895C417.631 55.8599 417.602 55.8303 417.602 55.8008C417.602 55.5939 417.72 55.4904 417.957 55.4904L419.42 57.5744C419.449 57.5153 419.568 57.3822 419.775 57.1753L419.464 54.2489V43.0309C419.435 42.7944 419.775 42.5727 420.484 42.3658L421.947 46.046L422.125 45.7799L422.745 40.1488C422.982 39.9123 423.159 39.8384 423.277 39.9271C423.396 40.0749 423.543 40.1488 423.721 40.1488L425.228 46.2233L425.627 46.6224H426.027L426.736 45.7356L427.401 45.6026C427.608 45.8095 427.741 45.913 427.8 45.913V49.2385L427.179 53.9385C427.357 54.1159 427.564 54.2045 427.8 54.2045V57.264C427.83 57.2049 427.904 57.1605 428.022 57.131L428.51 60.5895ZM455.485 60.3235C455.485 60.9738 454.658 62.1118 453.002 63.7376C451.347 65.3634 450.15 66.265 449.411 66.4424L447.903 67.1518L445.198 67.7726L443.38 67.0188L439.922 67.5952C439.745 67.6248 439.449 67.5361 439.035 67.3292L438.769 67.5509V77.9708L433.626 78.1038C433.507 78.1038 433.315 78.1186 433.049 78.1481C432.813 78.2073 432.635 78.2368 432.517 78.2368C432.103 78.2368 431.808 78.1481 431.63 77.9708L431.054 78.1038C430.877 78.1925 430.655 78.2368 430.389 78.2368L429.945 76.4189L430.211 75.5321C430.093 75.3547 430.034 75.133 430.034 74.867C430.034 74.7487 430.049 74.6157 430.078 74.4679V68.4377L428.793 64.5801V58.1508C428.97 58.4464 429.399 58.9489 430.078 59.6584V50.3913L430.832 47.7309L430.078 45.5139V42.1884H431.231L433.581 44.5384L436.729 43.5186L438.725 43.962L440.055 43.1195V41.1686L440.942 40.9912L441.873 41.7893L442.627 44.2724H444.134L445.642 39.7054L446.75 39.8384L447.46 41.9667V44.3167L448.613 45.7356L450.209 41.0356L450.874 41.1686L452.426 44.7601V46.8441L453.224 48.1743C453.697 48.1152 454.199 48.13 454.731 48.2186L455.485 52.1649V60.3235ZM446.617 58.6829L445.73 54.5149V53.4508C445.405 53.1552 444.947 52.8004 444.356 52.3866L443.779 52.564L442.272 50.1696L441.341 52.1206L440.232 51.8102H439.479L438.858 51.4998L438.37 51.8545V58.8602L439.301 59.2593H440.188L441.252 59.7914L442.006 59.481L442.893 57.131H443.292L443.824 57.53L444.578 59.2593L445.243 59.481L446.617 58.6829ZM481.942 60.3235C481.942 60.9738 481.114 62.1118 479.459 63.7376C477.804 65.3634 476.606 66.265 475.867 66.4424L474.36 67.1518L471.655 67.7726L469.837 67.0188L466.379 67.5952C466.201 67.6248 465.906 67.5361 465.492 67.3292L465.226 67.5509V77.9708L460.082 78.1038C459.964 78.1038 459.772 78.1186 459.506 78.1481C459.269 78.2073 459.092 78.2368 458.974 78.2368C458.56 78.2368 458.264 78.1481 458.087 77.9708L457.511 78.1038C457.333 78.1925 457.112 78.2368 456.846 78.2368L456.402 76.4189L456.668 75.5321C456.55 75.3547 456.491 75.133 456.491 74.867C456.491 74.7487 456.506 74.6157 456.535 74.4679V68.4377L455.249 64.5801V58.1508C455.427 58.4464 455.855 58.9489 456.535 59.6584V50.3913L457.289 47.7309L456.535 45.5139V42.1884H457.688L460.038 44.5384L463.186 43.5186L465.181 43.962L466.512 43.1195V41.1686L467.398 40.9912L468.33 41.7893L469.083 44.2724H470.591L472.099 39.7054L473.207 39.8384L473.916 41.9667V44.3167L475.069 45.7356L476.666 41.0356L477.331 41.1686L478.883 44.7601V46.8441L479.681 48.1743C480.154 48.1152 480.656 48.13 481.188 48.2186L481.942 52.1649V60.3235ZM473.074 58.6829L472.187 54.5149V53.4508C471.862 53.1552 471.404 52.8004 470.813 52.3866L470.236 52.564L468.729 50.1696L467.798 52.1206L466.689 51.8102H465.935L465.315 51.4998L464.827 51.8545V58.8602L465.758 59.2593H466.645L467.709 59.7914L468.463 59.481L469.349 57.131H469.749L470.281 57.53L471.034 59.2593L471.699 59.481L473.074 58.6829ZM507.911 76.1085L504.896 76.4632L503.477 76.8623C503.241 76.7736 502.842 76.6406 502.28 76.4632L501.26 76.6406C500.787 76.6406 500.329 76.4928 499.886 76.1972L497.402 76.8623L493.855 77.1727L492.348 77.6604L491.328 76.4632L490.973 76.7736C491.032 76.9214 490.973 77.0249 490.796 77.084L490.264 77.2613C490.086 77.3205 489.953 77.35 489.865 77.35H489.244L486.894 75.5764C486.45 75.7538 486.17 75.9607 486.051 76.1972L484.278 75.7094V71.5415L483.302 68.5707C483.391 68.3638 483.701 68.1569 484.233 67.9499V60.5895L481.972 53.8055L482.593 51.9432H483.125L484.411 53.7168C484.293 53.7168 484.248 53.6133 484.278 53.4064V42.3658L485.475 42.0554L486.938 44.7158H487.47L489.155 43.6516C489.214 43.6812 489.392 43.696 489.687 43.696L490.84 40.1488L491.683 39.9714L492.791 43.2969L492.658 56.5102C492.806 56.1851 492.954 55.9929 493.101 55.9338C493.308 55.9929 493.574 56.2146 493.9 56.5989C494.225 56.9536 494.387 57.2344 494.387 57.4414L492.658 61.7867V62.4961L492.88 64.8905C492.88 65.3043 492.998 65.5704 493.235 65.6886L493.988 64.9348L494.786 65.1122L495.851 68.216L497.447 69.1028L498.422 70.2556L499.752 68.216H500.373L501.304 69.2801C501.423 69.4279 501.644 69.5018 501.969 69.5018C502.147 69.5018 502.398 69.4575 502.723 69.3688C503.078 69.2801 503.329 69.2358 503.477 69.2358C503.773 69.2358 504.024 69.3393 504.231 69.5462C504.379 69.5462 504.453 69.4427 504.453 69.2358H505.118L505.827 69.8122L506.847 69.5462L507.911 69.9896V76.1085ZM538.488 48.7951C538.488 49.4158 537.616 50.5539 535.872 52.2092C535.162 54.5445 534.113 56.7467 532.723 58.8159C531.039 61.3285 529.265 62.9247 527.403 63.6046V65.2452L528.334 63.782H528.866L529.176 64.1367L527.979 77.0396C527.683 77.4535 527.462 77.6604 527.314 77.6604H525.496C525.378 77.6604 525.319 77.7639 525.319 77.9708L524.964 77.6604L520.973 78.1038C520.707 78.1038 520.574 78.2073 520.574 78.4142L520.353 78.1038C520.205 78.1038 520.131 78.2073 520.131 78.4142C519.954 78.2073 519.687 78.1038 519.333 78.1038L518.845 76.7293V73.6255L517.337 69.7679V68.083C517.485 68.083 517.751 67.9795 518.136 67.7726L518.269 66.2207C518.387 64.8609 517.958 63.649 516.983 62.5848C515.682 61.1659 514.869 59.5253 514.544 57.6631L514.145 55.4461L513.879 55.18C513.849 55.3869 513.761 55.6825 513.613 56.0668C513.495 55.9781 513.288 56.0816 512.992 56.3772L507.405 47.5979C507.317 47.391 507.302 47.1545 507.361 46.8884C507.391 46.5928 507.405 46.4155 507.405 46.3564L508.957 45.3365L509.401 40.4591C509.696 40.3705 510.036 40.5626 510.42 41.0356L511.972 45.6026L512.504 45.2035L513.081 41.0356L513.436 40.7252H514.101L516.318 46.7998C517.441 47.8344 518.047 48.529 518.136 48.8837C518.52 50.3617 518.978 51.6772 519.51 52.83L519.776 52.564V50.7904H520.707L521.018 51.0564C521.402 51.2929 521.668 51.8545 521.816 52.7413L522.392 56.2885C522.717 56.525 523.087 57.1014 523.501 58.0178L525.851 54.0715V46.6224L526.649 46.7998L527.979 51.1007C528.068 51.1894 528.186 51.2338 528.334 51.2338L529.93 46.4894L531.083 45.7799V44.2724C531.556 44.0655 531.822 43.962 531.881 43.962L532.457 40.9025L532.812 40.7252L535.073 45.4696L535.473 45.3809H536.226C536.522 45.3218 536.965 45.307 537.556 45.3365L538.488 46.6667V48.7951ZM556.309 52.1206L555.599 53.6725V54.9583L556.309 57.8404C556.427 58.3725 556.309 58.8307 555.954 59.215C555.599 59.5992 555.156 59.8357 554.624 59.9244L552.096 60.3678L550.456 59.7914C549.835 59.9096 549.258 59.4071 548.726 58.2838C548.313 57.397 548.091 56.5841 548.061 55.8451L548.948 53.1404L550.456 52.1206V49.7705C550.692 49.6523 550.988 49.4454 551.342 49.1498L552.185 49.7705L552.717 51.8102C552.776 51.7511 552.835 51.7511 552.894 51.8102C552.983 51.8989 553.057 51.9432 553.116 51.9432L554.313 48.5734L555.289 48.8837L556.309 52.1206ZM556.619 69.7679C556.619 70.5069 556.249 71.1424 555.51 71.6745C554.771 72.177 554.032 72.3987 553.293 72.3396L550.012 71.7188L548.327 69.9452V69.1471L550.012 65.999L550.19 66.132L550.411 65.866L550.278 64.8461L551.209 64.048H552.362L552.939 62.8065H554.225L554.712 63.9593V65.5999L556.619 68.5707V69.7679ZM599.705 55.6678L597.665 62.8065V64.4471L598.108 66.265L598.685 67.9943L597.665 71.8519V73.9358C597.665 74.0836 597.695 74.1428 597.754 74.1132L597.931 73.9802L597.665 74.9557V79.3897L596.468 80.0104L593.852 79.301H591.324L589.817 75.9755V65.2009L588.797 62.6735L589.107 62.1414H589.772L590.216 62.5848C590.245 62.6144 590.305 62.5848 590.393 62.4961L589.817 60.5895V55.8008L584.718 59.348L583.831 58.7272L582.678 59.1706C582.648 59.1706 582.545 59.1263 582.368 59.0376C582.19 58.9489 582.042 58.9046 581.924 58.9046C581.481 58.9046 581.052 58.6829 580.638 58.2395C580.254 57.7665 580.062 57.3083 580.062 56.8649V55.2244L581.525 53.3177L581.969 49.9479C582.116 49.6819 582.397 49.4602 582.811 49.2828L583.875 52.2536C584.259 52.2536 584.969 52.0319 586.004 51.5885C586.417 51.2929 586.669 51.0712 586.757 50.9234H587.334C588.93 49.2089 589.728 47.8935 589.728 46.9771C589.728 46.7702 589.713 46.5781 589.684 46.4007L591.058 44.8488L591.457 45.2035V45.8243L591.679 46.7998L597.532 42.8092V41.5676H596.734C596.852 41.6859 596.911 41.8189 596.911 41.9667V42.8535L598.108 44.8931L597.665 47.2875V54.5149C597.813 54.574 597.961 54.6036 598.108 54.6036L598.862 53.2734L599.705 53.4508V55.6678ZM615.298 79.3897L613.48 83.4246L612.904 83.2916L612.416 83.5576L611.795 83.2029H611.396L609.002 82.8038C608.263 82.2422 607.79 81.8284 607.583 81.5623C607.11 80.9711 606.873 80.2321 606.873 79.3453C606.873 78.2516 607.361 77.2909 608.337 76.4632C608.544 76.2859 609.268 75.8425 610.509 75.133L610.775 75.4434L611.485 73.9802H613.347C613.554 74.3053 613.628 74.7044 613.569 75.1774C613.51 75.7094 613.495 76.0937 613.524 76.3302H614.677C615.091 76.744 615.298 77.0544 615.298 77.2613V79.3897ZM642.601 58.8602L642.335 59.1706L641.759 64.7131L642.025 66.4867L641.316 70.2113C640.961 72.1622 639.512 74.6896 636.97 77.7934L631.162 81.651L630.142 81.2076L629.432 81.651H628.812L627.836 81.2076L626.861 81.3406L623.491 78.9906C623.284 78.9906 622.974 79.0349 622.56 79.1236C622.56 78.9167 622.368 78.8132 621.983 78.8132L621.097 77.084L620.697 77.5274H619.944C619.205 77.5274 618.599 76.8918 618.126 75.6208C617.741 74.5566 617.579 73.7585 617.638 73.2264L617.062 68.5707L616.485 66.0433L617.195 55.8451L616.618 48.6177L616.973 48.0856C617.032 48.1743 617.106 48.2186 617.195 48.2186C617.283 48.2186 617.372 48.1743 617.461 48.0856L619.234 50.746L625.885 44.7601V42.9865L626.55 41.479H627.393L628.546 43.962H629.521C629.758 43.962 630.171 44.0655 630.763 44.2724L631.915 44.8488L633.645 44.9375L634.088 44.4497L634.665 41.745C634.783 41.745 634.945 41.6563 635.152 41.479H635.817L636.704 44.1837C636.616 44.6271 636.601 44.9079 636.66 45.0262L637.281 44.8488L640.783 52.3866C640.843 52.1501 640.872 51.958 640.872 51.8102C640.872 51.5737 640.813 51.3963 640.695 51.2781L641.183 50.48L642.158 50.6573L642.468 51.5885V53.4951L642.601 58.8602ZM634.132 67.6839V64.7131L632.891 61.1659V60.6338L634.132 59.8801V57.4857L632.27 53.1404L630.009 51.9432C629.713 51.9136 629.373 51.7658 628.989 51.4998L625.22 53.4508L624.422 56.7319V58.5942C624.422 58.476 624.496 58.2986 624.644 58.0621L624.865 57.7074L625.531 57.5744L626.196 59.1263V59.7027L624.378 63.3829V70.6547L626.107 72.6056H626.329V70.3886L627.437 69.9896L629.078 72.916C629.935 72.5022 630.837 71.911 631.782 71.1424C633.349 69.8713 634.132 68.7185 634.132 67.6839ZM670.401 58.8602L670.134 59.1706L669.558 64.7131L669.824 66.4867L669.115 70.2113C668.76 72.1622 667.312 74.6896 664.769 77.7934L658.961 81.651L657.941 81.2076L657.232 81.651H656.611L655.635 81.2076L654.66 81.3406L651.29 78.9906C651.083 78.9906 650.773 79.0349 650.359 79.1236C650.359 78.9167 650.167 78.8132 649.782 78.8132L648.896 77.084L648.497 77.5274H647.743C647.004 77.5274 646.398 76.8918 645.925 75.6208C645.541 74.5566 645.378 73.7585 645.437 73.2264L644.861 68.5707L644.284 66.0433L644.994 55.8451L644.417 48.6177L644.772 48.0856C644.831 48.1743 644.905 48.2186 644.994 48.2186C645.082 48.2186 645.171 48.1743 645.26 48.0856L647.033 50.746L653.684 44.7601V42.9865L654.349 41.479H655.192L656.345 43.962H657.32C657.557 43.962 657.971 44.0655 658.562 44.2724L659.715 44.8488L661.444 44.9375L661.887 44.4497L662.464 41.745C662.582 41.745 662.744 41.6563 662.951 41.479H663.617L664.503 44.1837C664.415 44.6271 664.4 44.9079 664.459 45.0262L665.08 44.8488L668.583 52.3866C668.642 52.1501 668.671 51.958 668.671 51.8102C668.671 51.5737 668.612 51.3963 668.494 51.2781L668.982 50.48L669.957 50.6573L670.268 51.5885V53.4951L670.401 58.8602ZM661.932 67.6839V64.7131L660.69 61.1659V60.6338L661.932 59.8801V57.4857L660.069 53.1404L657.808 51.9432C657.512 51.9136 657.172 51.7658 656.788 51.4998L653.019 53.4508L652.221 56.7319V58.5942C652.221 58.476 652.295 58.2986 652.443 58.0621L652.665 57.7074L653.33 57.5744L653.995 59.1263V59.7027L652.177 63.3829V70.6547L653.906 72.6056H654.128V70.3886L655.236 69.9896L656.877 72.916C657.734 72.5022 658.636 71.911 659.582 71.1424C661.148 69.8713 661.932 68.7185 661.932 67.6839ZM698.2 58.8602L697.934 59.1706L697.357 64.7131L697.623 66.4867L696.914 70.2113C696.559 72.1622 695.111 74.6896 692.568 77.7934L686.76 81.651L685.74 81.2076L685.031 81.651H684.41L683.434 81.2076L682.459 81.3406L679.089 78.9906C678.882 78.9906 678.572 79.0349 678.158 79.1236C678.158 78.9167 677.966 78.8132 677.582 78.8132L676.695 77.084L676.296 77.5274H675.542C674.803 77.5274 674.197 76.8918 673.724 75.6208C673.34 74.5566 673.177 73.7585 673.236 73.2264L672.66 68.5707L672.083 66.0433L672.793 55.8451L672.216 48.6177L672.571 48.0856C672.63 48.1743 672.704 48.2186 672.793 48.2186C672.881 48.2186 672.97 48.1743 673.059 48.0856L674.832 50.746L681.483 44.7601V42.9865L682.149 41.479H682.991L684.144 43.962H685.119C685.356 43.962 685.77 44.0655 686.361 44.2724L687.514 44.8488L689.243 44.9375L689.686 44.4497L690.263 41.745C690.381 41.745 690.544 41.6563 690.75 41.479H691.416L692.302 44.1837C692.214 44.6271 692.199 44.9079 692.258 45.0262L692.879 44.8488L696.382 52.3866C696.441 52.1501 696.47 51.958 696.47 51.8102C696.47 51.5737 696.411 51.3963 696.293 51.2781L696.781 50.48L697.756 50.6573L698.067 51.5885V53.4951L698.2 58.8602ZM689.731 67.6839V64.7131L688.489 61.1659V60.6338L689.731 59.8801V57.4857L687.868 53.1404L685.607 51.9432C685.311 51.9136 684.972 51.7658 684.587 51.4998L680.818 53.4508L680.02 56.7319V58.5942C680.02 58.476 680.094 58.2986 680.242 58.0621L680.464 57.7074L681.129 57.5744L681.794 59.1263V59.7027L679.976 63.3829V70.6547L681.705 72.6056H681.927V70.3886L683.035 69.9896L684.676 72.916C685.533 72.5022 686.435 71.911 687.381 71.1424C688.947 69.8713 689.731 68.7185 689.731 67.6839ZM713.894 79.3897L712.076 83.4246L711.5 83.2916L711.012 83.5576L710.391 83.2029H709.992L707.598 82.8038C706.859 82.2422 706.386 81.8284 706.179 81.5623C705.706 80.9711 705.469 80.2321 705.469 79.3453C705.469 78.2516 705.957 77.2909 706.933 76.4632C707.139 76.2859 707.864 75.8425 709.105 75.133L709.371 75.4434L710.081 73.9802H711.943C712.15 74.3053 712.224 74.7044 712.165 75.1774C712.106 75.7094 712.091 76.0937 712.12 76.3302H713.273C713.687 76.744 713.894 77.0544 713.894 77.2613V79.3897ZM741.197 58.8602L740.931 59.1706L740.355 64.7131L740.621 66.4867L739.911 70.2113C739.557 72.1622 738.108 74.6896 735.566 77.7934L729.758 81.651L728.738 81.2076L728.028 81.651H727.408L726.432 81.2076L725.457 81.3406L722.087 78.9906C721.88 78.9906 721.569 79.0349 721.156 79.1236C721.156 78.9167 720.963 78.8132 720.579 78.8132L719.692 77.084L719.293 77.5274H718.54C717.801 77.5274 717.195 76.8918 716.722 75.6208C716.337 74.5566 716.175 73.7585 716.234 73.2264L715.657 68.5707L715.081 66.0433L715.79 55.8451L715.214 48.6177L715.569 48.0856C715.628 48.1743 715.702 48.2186 715.79 48.2186C715.879 48.2186 715.968 48.1743 716.057 48.0856L717.83 50.746L724.481 44.7601V42.9865L725.146 41.479H725.989L727.142 43.962H728.117C728.353 43.962 728.767 44.0655 729.359 44.2724L730.511 44.8488L732.241 44.9375L732.684 44.4497L733.26 41.745C733.379 41.745 733.541 41.6563 733.748 41.479H734.413L735.3 44.1837C735.211 44.6271 735.197 44.9079 735.256 45.0262L735.876 44.8488L739.379 52.3866C739.438 52.1501 739.468 51.958 739.468 51.8102C739.468 51.5737 739.409 51.3963 739.291 51.2781L739.778 50.48L740.754 50.6573L741.064 51.5885V53.4951L741.197 58.8602ZM732.728 67.6839V64.7131L731.487 61.1659V60.6338L732.728 59.8801V57.4857L730.866 53.1404L728.605 51.9432C728.309 51.9136 727.969 51.7658 727.585 51.4998L723.816 53.4508L723.018 56.7319V58.5942C723.018 58.476 723.092 58.2986 723.24 58.0621L723.461 57.7074L724.126 57.5744L724.791 59.1263V59.7027L722.974 63.3829V70.6547L724.703 72.6056H724.925V70.3886L726.033 69.9896L727.674 72.916C728.531 72.5022 729.432 71.911 730.378 71.1424C731.945 69.8713 732.728 68.7185 732.728 67.6839ZM768.996 58.8602L768.73 59.1706L768.154 64.7131L768.42 66.4867L767.711 70.2113C767.356 72.1622 765.907 74.6896 763.365 77.7934L757.557 81.651L756.537 81.2076L755.827 81.651H755.207L754.231 81.2076L753.256 81.3406L749.886 78.9906C749.679 78.9906 749.369 79.0349 748.955 79.1236C748.955 78.9167 748.763 78.8132 748.378 78.8132L747.492 77.084L747.092 77.5274H746.339C745.6 77.5274 744.994 76.8918 744.521 75.6208C744.136 74.5566 743.974 73.7585 744.033 73.2264L743.457 68.5707L742.88 66.0433L743.59 55.8451L743.013 48.6177L743.368 48.0856C743.427 48.1743 743.501 48.2186 743.59 48.2186C743.678 48.2186 743.767 48.1743 743.856 48.0856L745.629 50.746L752.28 44.7601V42.9865L752.945 41.479H753.788L754.941 43.962H755.916C756.153 43.962 756.566 44.0655 757.158 44.2724L758.31 44.8488L760.04 44.9375L760.483 44.4497L761.06 41.745C761.178 41.745 761.34 41.6563 761.547 41.479H762.212L763.099 44.1837C763.011 44.6271 762.996 44.9079 763.055 45.0262L763.676 44.8488L767.178 52.3866C767.238 52.1501 767.267 51.958 767.267 51.8102C767.267 51.5737 767.208 51.3963 767.09 51.2781L767.578 50.48L768.553 50.6573L768.863 51.5885V53.4951L768.996 58.8602ZM760.527 67.6839V64.7131L759.286 61.1659V60.6338L760.527 59.8801V57.4857L758.665 53.1404L756.404 51.9432C756.108 51.9136 755.768 51.7658 755.384 51.4998L751.615 53.4508L750.817 56.7319V58.5942C750.817 58.476 750.891 58.2986 751.039 58.0621L751.26 57.7074L751.926 57.5744L752.591 59.1263V59.7027L750.773 63.3829V70.6547L752.502 72.6056H752.724V70.3886L753.832 69.9896L755.473 72.916C756.33 72.5022 757.232 71.911 758.177 71.1424C759.744 69.8713 760.527 68.7185 760.527 67.6839ZM796.795 58.8602L796.529 59.1706L795.953 64.7131L796.219 66.4867L795.51 70.2113C795.155 72.1622 793.706 74.6896 791.164 77.7934L785.356 81.651L784.336 81.2076L783.627 81.651H783.006L782.03 81.2076L781.055 81.3406L777.685 78.9906C777.478 78.9906 777.168 79.0349 776.754 79.1236C776.754 78.9167 776.562 78.8132 776.177 78.8132L775.291 77.084L774.892 77.5274H774.138C773.399 77.5274 772.793 76.8918 772.32 75.6208C771.936 74.5566 771.773 73.7585 771.832 73.2264L771.256 68.5707L770.679 66.0433L771.389 55.8451L770.812 48.6177L771.167 48.0856C771.226 48.1743 771.3 48.2186 771.389 48.2186C771.477 48.2186 771.566 48.1743 771.655 48.0856L773.428 50.746L780.079 44.7601V42.9865L780.744 41.479H781.587L782.74 43.962H783.715C783.952 43.962 784.366 44.0655 784.957 44.2724L786.11 44.8488L787.839 44.9375L788.282 44.4497L788.859 41.745C788.977 41.745 789.139 41.6563 789.346 41.479H790.011L790.898 44.1837C790.81 44.6271 790.795 44.9079 790.854 45.0262L791.475 44.8488L794.978 52.3866C795.037 52.1501 795.066 51.958 795.066 51.8102C795.066 51.5737 795.007 51.3963 794.889 51.2781L795.377 50.48L796.352 50.6573L796.662 51.5885V53.4951L796.795 58.8602ZM788.327 67.6839V64.7131L787.085 61.1659V60.6338L788.327 59.8801V57.4857L786.464 53.1404L784.203 51.9432C783.907 51.9136 783.567 51.7658 783.183 51.4998L779.414 53.4508L778.616 56.7319V58.5942C778.616 58.476 778.69 58.2986 778.838 58.0621L779.059 57.7074L779.725 57.5744L780.39 59.1263V59.7027L778.572 63.3829V70.6547L780.301 72.6056H780.523V70.3886L781.631 69.9896L783.272 72.916C784.129 72.5022 785.031 71.911 785.977 71.1424C787.543 69.8713 788.327 68.7185 788.327 67.6839ZM812.49 79.3897L810.672 83.4246L810.095 83.2916L809.608 83.5576L808.987 83.2029H808.588L806.194 82.8038C805.455 82.2422 804.982 81.8284 804.775 81.5623C804.302 80.9711 804.065 80.2321 804.065 79.3453C804.065 78.2516 804.553 77.2909 805.528 76.4632C805.735 76.2859 806.46 75.8425 807.701 75.133L807.967 75.4434L808.677 73.9802H810.539C810.746 74.3053 810.82 74.7044 810.761 75.1774C810.701 75.7094 810.687 76.0937 810.716 76.3302H811.869C812.283 76.744 812.49 77.0544 812.49 77.2613V79.3897ZM839.793 58.8602L839.527 59.1706L838.951 64.7131L839.217 66.4867L838.507 70.2113C838.153 72.1622 836.704 74.6896 834.162 77.7934L828.353 81.651L827.334 81.2076L826.624 81.651H826.003L825.028 81.2076L824.052 81.3406L820.683 78.9906C820.476 78.9906 820.165 79.0349 819.751 79.1236C819.751 78.9167 819.559 78.8132 819.175 78.8132L818.288 77.084L817.889 77.5274H817.135C816.396 77.5274 815.79 76.8918 815.317 75.6208C814.933 74.5566 814.771 73.7585 814.83 73.2264L814.253 68.5707L813.677 66.0433L814.386 55.8451L813.81 48.6177L814.165 48.0856C814.224 48.1743 814.298 48.2186 814.386 48.2186C814.475 48.2186 814.564 48.1743 814.652 48.0856L816.426 50.746L823.077 44.7601V42.9865L823.742 41.479H824.585L825.737 43.962H826.713C826.949 43.962 827.363 44.0655 827.954 44.2724L829.107 44.8488L830.836 44.9375L831.28 44.4497L831.856 41.745C831.975 41.745 832.137 41.6563 832.344 41.479H833.009L833.896 44.1837C833.807 44.6271 833.792 44.9079 833.852 45.0262L834.472 44.8488L837.975 52.3866C838.034 52.1501 838.064 51.958 838.064 51.8102C838.064 51.5737 838.005 51.3963 837.887 51.2781L838.374 50.48L839.35 50.6573L839.66 51.5885V53.4951L839.793 58.8602ZM831.324 67.6839V64.7131L830.083 61.1659V60.6338L831.324 59.8801V57.4857L829.462 53.1404L827.201 51.9432C826.905 51.9136 826.565 51.7658 826.181 51.4998L822.412 53.4508L821.614 56.7319V58.5942C821.614 58.476 821.688 58.2986 821.835 58.0621L822.057 57.7074L822.722 57.5744L823.387 59.1263V59.7027L821.569 63.3829V70.6547L823.299 72.6056H823.52V70.3886L824.629 69.9896L826.269 72.916C827.127 72.5022 828.028 71.911 828.974 71.1424C830.541 69.8713 831.324 68.7185 831.324 67.6839ZM867.592 58.8602L867.326 59.1706L866.75 64.7131L867.016 66.4867L866.306 70.2113C865.952 72.1622 864.503 74.6896 861.961 77.7934L856.153 81.651L855.133 81.2076L854.423 81.651H853.803L852.827 81.2076L851.852 81.3406L848.482 78.9906C848.275 78.9906 847.964 79.0349 847.551 79.1236C847.551 78.9167 847.358 78.8132 846.974 78.8132L846.087 77.084L845.688 77.5274H844.935C844.196 77.5274 843.59 76.8918 843.117 75.6208C842.732 74.5566 842.57 73.7585 842.629 73.2264L842.052 68.5707L841.476 66.0433L842.185 55.8451L841.609 48.6177L841.964 48.0856C842.023 48.1743 842.097 48.2186 842.185 48.2186C842.274 48.2186 842.363 48.1743 842.452 48.0856L844.225 50.746L850.876 44.7601V42.9865L851.541 41.479H852.384L853.537 43.962H854.512C854.748 43.962 855.162 44.0655 855.754 44.2724L856.906 44.8488L858.636 44.9375L859.079 44.4497L859.655 41.745C859.774 41.745 859.936 41.6563 860.143 41.479H860.808L861.695 44.1837C861.606 44.6271 861.592 44.9079 861.651 45.0262L862.272 44.8488L865.774 52.3866C865.833 52.1501 865.863 51.958 865.863 51.8102C865.863 51.5737 865.804 51.3963 865.686 51.2781L866.173 50.48L867.149 50.6573L867.459 51.5885V53.4951L867.592 58.8602ZM859.123 67.6839V64.7131L857.882 61.1659V60.6338L859.123 59.8801V57.4857L857.261 53.1404L855 51.9432C854.704 51.9136 854.364 51.7658 853.98 51.4998L850.211 53.4508L849.413 56.7319V58.5942C849.413 58.476 849.487 58.2986 849.635 58.0621L849.856 57.7074L850.521 57.5744L851.187 59.1263V59.7027L849.369 63.3829V70.6547L851.098 72.6056H851.32V70.3886L852.428 69.9896L854.069 72.916C854.926 72.5022 855.827 71.911 856.773 71.1424C858.34 69.8713 859.123 68.7185 859.123 67.6839ZM895.391 58.8602L895.125 59.1706L894.549 64.7131L894.815 66.4867L894.106 70.2113C893.751 72.1622 892.302 74.6896 889.76 77.7934L883.952 81.651L882.932 81.2076L882.222 81.651H881.602L880.626 81.2076L879.651 81.3406L876.281 78.9906C876.074 78.9906 875.764 79.0349 875.35 79.1236C875.35 78.9167 875.158 78.8132 874.773 78.8132L873.886 77.084L873.487 77.5274H872.734C871.995 77.5274 871.389 76.8918 870.916 75.6208C870.531 74.5566 870.369 73.7585 870.428 73.2264L869.852 68.5707L869.275 66.0433L869.985 55.8451L869.408 48.6177L869.763 48.0856C869.822 48.1743 869.896 48.2186 869.985 48.2186C870.073 48.2186 870.162 48.1743 870.251 48.0856L872.024 50.746L878.675 44.7601V42.9865L879.34 41.479H880.183L881.336 43.962H882.311C882.548 43.962 882.961 44.0655 883.553 44.2724L884.705 44.8488L886.435 44.9375L886.878 44.4497L887.455 41.745C887.573 41.745 887.735 41.6563 887.942 41.479H888.607L889.494 44.1837C889.405 44.6271 889.391 44.9079 889.45 45.0262L890.071 44.8488L893.573 52.3866C893.633 52.1501 893.662 51.958 893.662 51.8102C893.662 51.5737 893.603 51.3963 893.485 51.2781L893.973 50.48L894.948 50.6573L895.258 51.5885V53.4951L895.391 58.8602ZM886.922 67.6839V64.7131L885.681 61.1659V60.6338L886.922 59.8801V57.4857L885.06 53.1404L882.799 51.9432C882.503 51.9136 882.163 51.7658 881.779 51.4998L878.01 53.4508L877.212 56.7319V58.5942C877.212 58.476 877.286 58.2986 877.434 58.0621L877.655 57.7074L878.32 57.5744L878.986 59.1263V59.7027L877.168 63.3829V70.6547L878.897 72.6056H879.119V70.3886L880.227 69.9896L881.868 72.916C882.725 72.5022 883.627 71.911 884.572 71.1424C886.139 69.8713 886.922 68.7185 886.922 67.6839Z" fill="black"/>
</svg>
