<svg width="56" height="56" viewBox="0 0 56 56" fill="none" xmlns="http://www.w3.org/2000/svg">
<circle cx="28" cy="28" r="28" fill="black"/>
<g clip-path="url(#clip0_2001_2)">
<path d="M36.7123 17.063L13.6069 25.695C12.7695 26.0075 12.8084 27.1694 13.6643 27.4299L19.1078 29.0818L21.3564 35.9279C21.5888 36.6349 22.5069 36.8577 23.0545 36.3385L26.2718 33.2878L32.3688 37.811C32.9222 38.2216 33.7285 37.9309 33.8705 37.2683L37.9796 18.107C38.1323 17.3943 37.4126 16.8006 36.7123 17.0621V17.063ZM33.7188 21.187C33.7188 21.187 25.1436 28.8279 22.965 30.7695C22.8726 30.8516 22.8152 30.9639 22.8036 31.0857L22.4554 34.6791C22.4408 34.8415 22.1986 34.8774 22.1403 34.7169C22.0323 34.4224 20.8584 30.4353 20.4869 29.2007C20.4227 28.9883 20.5132 28.7618 20.7057 28.6448L33.5058 20.9302C33.6623 20.8226 33.8812 21.0265 33.7197 21.1879L33.7188 21.187Z" fill="white"/>
</g>
<defs>
<clipPath id="clip0_2001_2">
<rect width="25" height="21" fill="white" transform="translate(13 17)"/>
</clipPath>
</defs>
</svg>
